<?xml version="1.0" encoding="utf-8"?>
<!-- Generator: Adobe Illustrator 25.4.1, SVG Export Plug-In . SVG Version: 6.00 Build 0)  -->
<svg version="1.1" id="Layer_1_xA0_Image_00000078731033173789538670000001492272866796107704_"
	 xmlns="http://www.w3.org/2000/svg" xmlns:xlink="http://www.w3.org/1999/xlink" x="500.4px" y="349.92px" viewBox="0 0 500.4 349.92"
	 style="enable-background:new 0 0 500.4 349.92;" xml:space="preserve">
<style type="text/css">
	.st0{fill:#0B0A0B;}
	.st1{fill:#0C0C0C;}
	.st2{fill:#B6B8BA;}
	.st3{fill:#B5B7B9;}
	.st4{fill:#0A0A0B;}
	.st5{fill:#0B0B0B;}
	.st6{fill:#0B0B0C;}
	.st7{fill:#0C0B0C;}
	.st8{fill:#0E0E0E;}
	.st9{fill:#0C0C0D;}
	.st10{fill:#0D0D0D;}
	.st11{fill:#0D0D0E;}
	.st12{fill:#FCFBFB;}
	.st13{fill:#9C9EA1;}
	.st14{fill:#FFFFFF;}
	.st15{fill:#FCFCFD;}
</style>
<path class="st0" d="M432.11,194.67c1.43-0.01,2.53-0.83,3.67-1.53c0.19-0.12,0.29-0.38,0.63-0.39c0.63,0.1,0.57,0.94,1.12,1.17
	c0,0.08,0,0.16,0,0.24c-0.86,0.42-1.48,1.15-2.23,1.71c-2.46,1.83-5.22,2.39-8.2,2.36c-3.57-0.04-6.48-1.57-9.14-3.82
	c-2.09-1.76-3.59-4-5.23-6.13c-1.92-2.5-3.73-5.08-5.72-7.53c-0.94-1.16-1.86-2.33-2.94-3.39c-0.91-0.9-1.89-1.66-3.17-1.94
	c-0.24-0.15-0.55-0.03-0.84-0.25c-0.08-0.52-0.2-1.08,0.06-1.64c1.91-0.01,3.83,0.08,5.74-0.05c0.41-0.17,0.86,0.04,1.26-0.17
	c2.31-0.11,4.32-1.07,6.18-2.34c1.27-0.86,2.38-1.92,3.25-3.21c1.16-1.7,2.11-3.47,2.57-5.54c0.27-1.24,0.53-2.46,0.67-3.72
	c0.16-1.59,0.16-3.18,0-4.76c-0.14-1.98-0.67-3.86-1.36-5.73c-0.66-1.78-1.65-3.36-2.86-4.74c-1.08-1.22-2.44-2.23-3.97-2.9
	c-1.23-0.54-2.44-1.16-3.83-1.2c-0.28-0.01-0.51-0.37-0.87-0.24c-0.49-0.22-1.03,0.02-1.52-0.17c-3.37-0.01-6.73-0.03-10.1-0.04
	c-0.07,0-0.15,0.06-0.22,0.09c-0.23,0.33-0.12,0.7-0.12,1.05c-0.01,17.64-0.01,35.28,0,52.93c0,0.35-0.1,0.72,0.12,1.05
	c0.86,0.22,1.74,0.08,2.61,0.1c1.47,0.03,2.93,0.01,4.46,0.01c0,0.72,0,1.34,0,1.99c-0.01,0.01-0.03,0.05-0.06,0.07
	c-0.03,0.02-0.07,0.05-0.1,0.05c-7.42,0.01-14.84,0.02-22.26,0.03c-0.18-0.72-0.21-1.44,0.02-2.15c0.99,0,1.98,0,2.96,0.01
	c1.84,0.02,3.07-0.86,3.77-2.54c0.07-0.17,0.29-0.27,0.22-0.5c0.15-0.34,0.09-0.71,0.09-1.07c0-15.67,0-31.34,0-47.02
	c0-0.36,0.06-0.72-0.09-1.07c-0.39-1.59-1.46-2.41-3-2.82c-1.33-0.36-2.65-0.14-3.97-0.22c-0.2-0.72-0.2-1.44,0-2.15
	c8.69,0,17.37,0,26.06,0c1.03,0,2.07,0.01,3.1,0.02c0.41,0.2,0.87,0,1.29,0.17c2.56,0.43,5.11,0.92,7.52,1.96
	c5.54,2.4,9.14,6.48,10.66,12.34c0.3,1.14,0.39,2.33,0.57,3.5c0.13,0.96,0.12,1.92,0,2.87c-0.4,3.36-1.38,6.48-3.37,9.28
	c-1.58,2.21-3.58,3.89-5.86,5.28c-2.48,1.5-5.19,2.38-8.01,2.89c-1.04,0.18-2.12,0.27-3.18,0.36c-0.59,0.34-1.39-0.34-1.91,0.37
	c2.32,0.35,4.62,0.77,6.7,1.99c1.21,0.71,2.32,1.54,3.16,2.66c2.41,3.21,4.75,6.47,7.18,9.67c1.25,1.64,2.59,3.22,4.51,4.15
	c0.75,0.36,1.51,0.68,2.38,0.58C431.04,194.84,431.57,194.8,432.11,194.67z"/>
<path class="st0" d="M289.08,92.31c0-1.38,0-2.75,0-4.13c0.19-0.41,0-0.88,0.17-1.3c0.05-1.84,0.52-3.63,1.09-5.35
	c0.71-2.14,1.69-4.19,3.01-6.07c0.88-1.25,1.86-2.43,2.93-3.51c1.91-1.91,4.15-3.39,6.61-4.51c2.18-0.98,4.47-1.59,6.83-1.96
	c0.7-0.11,1.48,0.01,2.11-0.46c0.24,0,0.48,0,0.72,0c0.8,0.2,1.6,0.2,2.4,0c0.24,0,0.48,0,0.72,0c0.49,0.49,1.18,0.37,1.75,0.44
	c4.01,0.52,7.66,1.95,10.92,4.29c4.19,3.01,7.05,7.04,8.68,11.95c0.58,1.76,0.9,3.58,1.23,5.4c0.21,0.57-0.06,1.19,0.18,1.75
	c0,0.91,0,1.82,0,2.74c-0.25,0.56,0.03,1.18-0.18,1.74c-0.53,3.43-1.43,6.72-3.14,9.79c-2.01,3.61-4.76,6.48-8.27,8.63
	c-1.56,0.96-3.18,1.86-4.95,2.34c-1.73,0.47-3.47,0.94-5.26,1.14c-0.49,0.18-1.03-0.05-1.52,0.17c-0.91,0-1.81,0-2.72,0
	c-0.57-0.24-1.18,0.03-1.75-0.17c-1.31-0.03-2.59-0.3-3.83-0.67c-2.44-0.73-4.81-1.68-6.95-3.1c-1.55-1.03-3.04-2.17-4.29-3.59
	c-1.5-1.7-2.83-3.52-3.81-5.57c-0.99-2.09-1.83-4.22-2.21-6.54c-0.12-0.73-0.1-1.47-0.31-2.18
	C289.08,93.18,289.28,92.72,289.08,92.31z"/>
<path class="st0" d="M202.21,88.63c0,1.15,0,2.29-0.01,3.44c-0.22,0.49,0.02,1.04-0.18,1.53c-0.42,2.03-0.74,4.09-1.48,6.04
	c-0.96,2.52-2.27,4.82-3.95,6.94c-2.54,3.23-5.85,5.4-9.51,7.06c-1.58,0.72-3.33,1.07-5.06,1.31c-0.55,0.08-1.07,0.29-1.62,0.31
	c-0.49,0.18-1.03-0.05-1.51,0.17c-0.91,0-1.81,0-2.72,0c-0.49-0.22-1.02,0.01-1.51-0.17c-1.48-0.18-2.94-0.34-4.39-0.78
	c-2.93-0.89-5.64-2.19-8.08-4c-2.19-1.63-3.94-3.68-5.42-5.98c-0.67-1.04-1.27-2.13-1.75-3.25c-0.57-1.33-1.07-2.7-1.41-4.11
	c-0.28-1.16-0.55-2.32-0.58-3.51c-0.2-0.49,0.04-1.04-0.18-1.53c0-1.15,0-2.29-0.01-3.44c0.23-0.48-0.01-1.02,0.17-1.5
	c0.15-1.5,0.33-2.99,0.82-4.42c0.48-1.42,0.95-2.86,1.56-4.23c0.59-1.35,1.41-2.6,2.32-3.74c1.76-2.2,3.7-4.23,6.13-5.73
	c2.53-1.56,5.23-2.65,8.13-3.23c1.13-0.23,2.26-0.42,3.41-0.5c0.14-0.01,0.19-0.11,0.22-0.23c0.24,0,0.48,0,0.72,0
	c0.8,0.2,1.6,0.2,2.4,0c0.24,0,0.48,0,0.72,0c0.49,0.49,1.18,0.37,1.75,0.44c3.89,0.5,7.41,1.9,10.64,4.11
	c3.96,2.72,6.71,6.37,8.5,10.81c0.88,2.17,1.29,4.44,1.71,6.72C202.22,87.61,201.98,88.15,202.21,88.63z"/>
<path class="st0" d="M208.71,98.87c0.36,3.03,1.42,5.78,3.26,8.22c1.77,2.35,3.92,4.22,6.62,5.41c1.55,0.68,3.15,1.21,4.89,1.05
	c0.45,0.14,0.9,0.16,1.35,0c2.49,0.08,4.82-0.44,6.93-1.83c2.02-1.32,3.39-3.11,3.79-5.48c0.25-1.49,0.43-3.03-0.18-4.54
	c-0.67-1.65-1.66-3-3.06-4.12c-2.37-1.9-5.07-3.19-7.79-4.44c-2.46-1.13-4.88-2.33-7.27-3.58c-1.51-0.79-2.89-1.76-4.16-2.95
	c-0.74-0.7-1.46-1.4-2.05-2.2c-1.08-1.46-1.84-3.09-1.92-4.96c-0.11-1.04-0.11-2.08,0-3.11c0.04-1.74,0.78-3.25,1.51-4.77
	c0.21-0.45,0.53-0.86,0.86-1.24c2-2.33,4.46-3.91,7.5-4.54c0.93-0.19,1.84-0.43,2.79-0.49c0.17-0.01,0.31-0.06,0.34-0.25
	c0.08,0,0.16,0,0.24,0c0.96,0.2,1.92,0.2,2.88,0c0.16,0,0.32,0,0.48,0c0.44,0.51,1.11,0.37,1.62,0.43c2.68,0.3,5.18,1.18,7.61,2.25
	c1.03,0.45,1.98,1.1,2.96,1.66c0.29,0.48,0.14,1.01,0.14,1.51c0.02,2.54,0.01,5.09,0,7.64c0,0.38,0.13,0.8-0.14,1.15
	c-0.56,0-1.12,0-1.77,0c-0.25-0.95-0.55-1.92-0.76-2.91c-0.18-0.85-0.53-1.63-0.88-2.4c-0.7-1.51-1.49-2.97-2.72-4.16
	c-1.54-1.5-3.29-2.63-5.39-3.01c-2.45-0.45-4.9-0.44-7.18,0.84c-1.69,0.95-2.87,2.3-3.49,4.15c-0.1,0.31-0.13,0.62-0.11,0.94
	c-0.15,0.68-0.17,1.37,0.01,2.05c-0.02,1.27,0.63,2.24,1.4,3.15c1.27,1.5,2.86,2.63,4.59,3.52c3.31,1.71,6.65,3.36,9.99,5.02
	c2.35,1.17,4.55,2.59,6.42,4.42c2.22,2.17,3.69,4.74,4.05,7.95c0.3,2.73-0.08,5.27-1.24,7.7c-1.47,3.06-3.92,5.12-6.94,6.53
	c-2.13,0.99-4.4,1.51-6.73,1.78c-0.57,0.2-1.19-0.06-1.75,0.18c-0.99,0-1.98,0-2.97,0c-0.57-0.24-1.18,0.02-1.75-0.17
	c-1-0.1-2.02-0.12-3-0.33c-0.74-0.16-1.49-0.33-2.21-0.55c-1.52-0.47-3.06-0.95-4.48-1.65c-1.47-0.72-3-1.44-4.05-2.81
	c-0.13-3.66-0.02-7.31-0.07-11.02C207.56,98.71,208.13,98.7,208.71,98.87z"/>
<path class="st1" d="M324.07,297.36c-0.44-1.18-0.22-2.28,0.38-3.34c0.5,0.03,0.49,0.49,0.71,0.75c1,1.2,2.2,0.99,2.86-0.45
	c0.36-0.77,0.53-1.64,0.67-2.51c0.11-0.66,0.22-1.34,0.36-2.01c0.17-0.83,0.21-1.69,0.33-2.53c0.12-0.83,0.26-1.66,0.4-2.49
	c0.13-0.8,0.2-1.61,0.34-2.41c0.24-1.31,0.3-2.66,0.57-3.97c0.12-0.56,0.17-1.06,0.08-1.64c-0.56-0.2-1.13-0.01-1.66-0.12
	c-0.46-0.43-0.14-0.85,0.02-1.27c0.51-0.51,1.2-0.01,1.75-0.31c0.25,0.07,0.39-0.05,0.41-0.28c0.3-2.56,1.28-4.87,2.7-6.99
	c1.48-2.21,4.16-3.4,7.11-2.56c0.76,0.22,0.92,0.45,0.95,1.27c0.04,1.12-0.07,2.2-0.75,3.12c-0.47,0-0.49-0.41-0.56-0.64
	c-0.21-0.67-0.64-1.15-1.14-1.6c-1.19-1.08-2.85-0.88-3.82,0.45c-1.01,1.4-1.48,3.01-1.88,4.65c-0.16,0.65-0.35,1.3-0.28,1.98
	c-0.09,0.64,0.4,0.41,0.69,0.44c0.81,0.09,1.64-0.14,2.44,0.13c-1.07,1.92-0.46,1.6-2.8,1.63c-0.2,0-0.4,0-0.59,0
	c-0.27,0.27-0.39,0.58-0.42,0.95c-0.12,1.41-0.44,2.8-0.65,4.2c-0.17,1.21-0.36,2.42-0.55,3.62c-0.43,2.83-0.89,5.65-1.97,8.33
	c-0.62,1.53-1.61,2.76-3.07,3.58C325.83,297.36,324.95,297.36,324.07,297.36z"/>
<path class="st2" d="M225.26,65.04c-0.72,0.53-1.55,0.1-2.32,0.24c-0.2,0.04-0.48,0.09-0.56-0.24
	C223.34,65.04,224.3,65.04,225.26,65.04z"/>
<path class="st3" d="M314.96,65.04c-0.72,0.33-1.68,0.33-2.4,0C313.36,65.04,314.16,65.04,314.96,65.04z"/>
<path class="st3" d="M178.73,65.04c-0.72,0.33-1.67,0.33-2.4,0C177.13,65.04,177.93,65.04,178.73,65.04z"/>
<path class="st0" d="M78.23,193.88c2.15,0.12,4.31,0.04,6.46,0.04c0.22,0.72,0.17,1.44,0.02,2.16c-7.3,0-14.61,0-21.97,0
	c0-0.71,0-1.34,0-2.04c0.99-0.23,2.02-0.11,3.04-0.09c1.21,0.02,2.2-0.41,3.02-1.28c0.63-0.67,0.91-1.51,1.09-2.39
	c0.05-0.23,0.01-0.48,0.01-0.72c0-15.47,0-30.95,0-46.42c0-1.24-0.33-2.35-1.19-3.26c-0.83-0.87-1.93-1.05-3.04-1.14
	c-0.95-0.08-1.9-0.02-2.91-0.02c-0.12-0.73-0.08-1.39-0.03-2.15c7.38,0,14.68,0,21.98,0c0.18,0.72,0.18,1.44,0,2.16
	c-2.16,0.02-4.32,0.03-6.48,0.05c-0.19,0.25-0.12,0.54-0.12,0.81c0,7.47,0,14.94,0,22.41c0,0.24-0.04,0.48,0.2,0.86
	c10.37,0,20.85,0,31.23,0c0.31-0.35,0.24-0.64,0.24-0.91c0-6.55,0-13.1,0-19.65c0-0.24,0.04-0.48-0.12-0.69
	c-0.39-1.17-1.14-2-2.32-2.45c-0.61-0.23-1.21-0.43-1.87-0.42c-0.92,0.01-1.84,0-2.75,0c-0.21-0.72-0.21-1.43,0-2.15
	c7.31,0,14.61,0,21.97,0c0,0.71,0,1.34,0,2.09c-2.17,0-4.38,0-6.66,0c0,18.46,0,36.8,0,55.26c2.19,0,4.4,0,6.67,0
	c0,0.75,0,1.37,0,2.16c-7.32,0-14.65,0-21.99,0c-0.19-0.72-0.22-1.43,0.02-2.15c0.95,0,1.91-0.03,2.86,0.02
	c1.83,0.09,3.01-0.84,3.83-2.37c0.09-0.17,0.16-0.34,0.24-0.51c0.19-0.29,0.11-0.62,0.11-0.93c0-8.17,0-16.34,0-24.51
	c0-0.31,0.08-0.64-0.12-0.93c-0.28-0.02-0.55-0.05-0.83-0.05c-9.92,0-19.84,0-29.76,0c-0.28,0-0.55,0.03-0.83,0.05
	c-0.2,0.29-0.12,0.62-0.12,0.93c0,9.11,0,18.22,0,27.33C78.11,193.26,78.03,193.59,78.23,193.88z"/>
<path class="st0" d="M193.86,136.57c8.72,0,17.45,0,26.17,0c0.99,0,1.99,0.01,2.98,0.02c0.41,0.2,0.87,0,1.28,0.17
	c2.55,0.44,5.09,0.92,7.49,1.96c5.6,2.42,9.27,6.49,10.73,12.46c0.25,1.03,0.36,2.1,0.54,3.15c0.12,1.12,0.12,2.24,0,3.35
	c-0.4,3.2-1.33,6.21-3.2,8.87c-1.98,2.81-4.57,4.86-7.7,6.28c-1.2,0.54-2.36,1.14-3.65,1.44c-1.24,0.3-2.47,0.65-3.76,0.71
	c-0.71,0.03-1.41,0.18-2.12,0.27c-0.65,0.21-1.35-0.06-2,0.17c-0.25,0.36,0.1,0.26,0.23,0.27c1.37,0.16,2.73,0.36,4.04,0.79
	c2.71,0.89,4.85,2.51,6.53,4.84c2.45,3.4,4.97,6.76,7.55,10.07c1.1,1.41,2.5,2.53,4.28,3.08c0.47,0.14,0.92,0.21,1.39,0.2
	c0.59,0.16,1.18,0.17,1.78,0c1.37-0.05,2.42-0.84,3.51-1.53c0.17-0.11,0.31-0.25,0.47-0.36c0.05-0.03,0.16,0.01,0.23,0.01
	c0.07,0.03,0.17,0.05,0.21,0.1c0.8,1.14,0.77,1.31-0.34,2.23c-2.48,2.05-5.31,3.1-8.54,3.13c-3.3,0.03-6.18-0.98-8.8-2.99
	c-2.14-1.64-3.8-3.67-5.4-5.78c-1.57-2.08-3.11-4.17-4.68-6.25c-1.1-1.46-2.1-3.03-3.37-4.33c-1.35-1.39-2.56-3.07-4.68-3.47
	c-0.24-0.15-0.55-0.03-0.84-0.25c-0.08-0.52-0.21-1.08,0.07-1.64c1.91-0.02,3.82,0.08,5.73-0.06c0.41-0.17,0.87,0.04,1.27-0.17
	c1.95-0.03,3.7-0.79,5.3-1.75c2.62-1.58,4.64-3.79,5.82-6.64c0.65-1.58,1.24-3.19,1.29-4.94c0.01-0.41,0.4-0.76,0.25-1.22
	c0.22-0.58-0.02-1.2,0.17-1.78c0.07-0.56,0.07-1.12,0-1.69c-0.19-0.58,0.05-1.2-0.17-1.78c-0.34-1.87-0.6-3.73-1.34-5.54
	c-0.79-1.92-1.88-3.56-3.26-5.03c-1.22-1.31-2.74-2.23-4.37-2.96c-1.25-0.56-2.58-0.82-3.92-1.04c-0.49-0.22-1.03,0.02-1.52-0.17
	c-3.43,0-6.85,0-10.33,0c0,18.38,0,36.72,0,55.15c2.36,0,4.7,0,7.11,0c0,0.75,0,1.41,0,2.16c-7.5,0-14.96,0-22.43,0
	c-0.2-0.72-0.22-1.43,0.02-2.15c0.99,0,1.98-0.03,2.97,0.01c1.74,0.07,2.86-0.85,3.66-2.26c0.11-0.19,0.22-0.39,0.3-0.6
	c0.2-0.38,0.11-0.79,0.11-1.18c0.01-15.72,0.01-31.44,0-47.15c0-0.39,0.1-0.8-0.11-1.18c-0.31-0.44-0.44-0.98-0.79-1.4
	c-0.89-1.08-2.11-1.36-3.4-1.44c-0.91-0.05-1.84-0.01-2.75-0.01C193.64,138,193.64,137.28,193.86,136.57z"/>
<path class="st0" d="M291.69,162.44c1.69,0.38,3.4,0.64,5.03,1.23c2.74,1,5.22,2.39,7.28,4.51c1.81,1.87,2.9,4.1,3.52,6.59
	c0.1,0.38,0.19,0.77,0.28,1.15c0.19,0.4-0.04,0.86,0.18,1.26c0.02,1.75-0.08,3.48-0.46,5.19c-0.49,2.27-1.43,4.34-2.9,6.12
	c-2.93,3.56-6.8,5.55-11.22,6.61c-1.44,0.34-2.9,0.56-4.36,0.78c-0.49,0.2-1.03-0.05-1.52,0.18c-6.63,0.01-13.26,0.02-19.89,0.02
	c-3.71,0-7.43,0-11.14,0c-0.39,0-0.78,0-1.21,0c0-0.73,0-1.36,0-2.06c1.13-0.17,2.28,0.01,3.42-0.1c1.54-0.15,2.77-0.86,3.39-2.34
	c0.27-0.63,0.38-1.33,0.37-2.05c-0.02-5.8-0.01-11.59-0.01-17.39c0-9.67,0-19.35,0.01-29.02c0-0.87-0.12-1.72-0.57-2.46
	c-0.83-1.37-2.13-1.91-3.67-1.95c-0.95-0.02-1.9,0-2.83,0c-0.26-0.39-0.15-0.76-0.15-1.1c0-0.31-0.08-0.63,0.07-0.94
	c0.29-0.19,0.62-0.09,0.93-0.09c9.07-0.01,18.14-0.01,27.2,0c0.88,0,1.75,0.01,2.63,0.02c0.49,0.22,1.03-0.02,1.52,0.17
	c2.44,0.4,4.88,0.79,7.2,1.71c2.66,1.05,5.01,2.5,6.66,4.9c0.98,1.42,1.51,3.02,1.78,4.71c0.11,0.88,0.12,1.76,0,2.63
	c-0.28,1.02-0.41,2.07-0.86,3.05c-1.1,2.39-2.87,4.13-5.12,5.39c-2.13,1.19-4.33,2.22-6.78,2.6c-0.11,0.02-0.22,0.08-0.32,0.14
	c-0.06,0.04-0.08,0.13-0.12,0.19c0.05,0.22,0.21,0.19,0.37,0.17C290.82,162.48,291.28,162.26,291.69,162.44z"/>
<path class="st4" d="M347.76,197.74c-0.54,0.02-1.08,0.04-1.62,0.06c-0.8,0.12-1.59,0.12-2.39,0c-0.79-0.04-1.58-0.12-2.38-0.08
	c-0.64,0.03-1.26-0.46-1.95-0.22c-1.59-0.57-3.27-0.81-4.87-1.37c-2.68-0.95-5.15-2.26-7.45-3.89c-1.3-0.92-2.45-2.03-3.61-3.14
	c-1.67-1.59-3.08-3.35-4.28-5.28c-0.79-1.27-1.6-2.52-2.16-3.95c-0.59-1.51-1.07-3.04-1.63-4.55c-0.35-0.94-0.35-1.94-0.67-2.86
	c-0.3-0.85-0.08-1.71-0.31-2.54c-0.21-0.57,0.07-1.18-0.18-1.75c0-1.23,0-2.47,0-3.7c0.24-0.56-0.03-1.18,0.18-1.75
	c0.15-1.61,0.36-3.21,0.79-4.76c0.41-1.5,0.88-2.97,1.51-4.4c0.25-0.57,0.36-1.21,0.68-1.73c1.22-1.98,2.28-4.04,3.83-5.83
	c0.94-1.08,1.89-2.13,2.9-3.14c1.58-1.57,3.41-2.82,5.35-3.95c2.83-1.66,5.86-2.7,9.04-3.39c0.77-0.17,1.55-0.29,2.33-0.43
	c0.41-0.18,0.87,0.03,1.27-0.18c1.16-0.01,2.31-0.06,3.47-0.02c6.46,0.23,12.32,2.17,17.54,6.07c4.31,3.23,7.46,7.34,9.62,12.24
	c1.03,2.34,1.81,4.75,2.17,7.3c0.05,0.35,0.18,0.69,0.27,1.03c0.2,0.4-0.04,0.86,0.19,1.25c-0.06,0.39-0.01,0.77,0.06,1.15
	c0.13,1.6,0.13,3.2,0,4.79c-0.07,0.38-0.12,0.76-0.06,1.15c-0.23,0.39,0.01,0.85-0.19,1.25c-0.47,2.27-0.91,4.55-1.75,6.71
	c-1.28,3.27-2.97,6.31-5.23,9.03c-2.12,2.56-4.58,4.7-7.42,6.42c-2.35,1.42-4.79,2.6-7.47,3.32c-1.43,0.39-2.87,0.65-4.31,0.96
	C348.61,197.75,348.15,197.51,347.76,197.74z"/>
<path class="st0" d="M111.34,70.76c-0.39-0.49-0.45-1.17-1.12-1.52c-0.67-0.36-1.35-0.56-2.08-0.6c-0.79-0.05-1.59-0.01-2.44-0.01
	c-0.26-0.7-0.07-1.42-0.12-2.11c0.23-0.22,0.53-0.14,0.8-0.14c7.61,0,15.22,0,22.82,0c0.2,0,0.4,0,0.59,0.07
	c2.25,0.13,4.49,0.31,6.66,1.01c2.95,0.95,5.47,2.46,6.92,5.35c0.44,0.89,0.6,1.86,0.86,2.81c0.11,0.8,0.13,1.6-0.01,2.39
	c-0.3,1.19-0.55,2.39-1.22,3.44c-1.36,2.13-3.39,3.36-5.69,4.22c-1.17,0.44-2.39,0.72-3.66,0.74c-0.19,0-0.39-0.01-0.49,0.17
	c0.09,0.47,0.44,0.29,0.67,0.31c2.69,0.22,5.31,0.77,7.74,1.96c3.32,1.63,5.63,4.15,6.49,7.84c0.91,3.94,0.43,7.67-1.75,11.11
	c-1.07,1.68-2.61,2.84-4.33,3.79c-1.89,1.04-3.91,1.67-6.05,1.96c-1.24,0.17-2.48,0.38-3.74,0.5c-0.27,0.11-0.55,0.07-0.83,0.07
	c-8.29,0-16.57,0-24.86,0c-0.31,0-0.64,0.08-0.93-0.12c0-0.63,0-1.27,0-1.94c0.68-0.25,1.36-0.16,2.01-0.12
	c1.78,0.13,3.11-0.44,3.77-2.19c0.17-0.34,0.1-0.71,0.1-1.06c0-12.29,0-24.58,0-36.87C111.45,71.47,111.53,71.1,111.34,70.76z"/>
<path class="st0" d="M144.17,196.07c-5.2,0-10.4,0.01-15.59,0.01c-0.13-0.72-0.18-1.45,0.03-2.16c1.04-0.01,2.08-0.03,3.12-0.04
	c0.39-0.2,0.84,0.06,1.22-0.19c1.86-0.34,3.11-1.49,3.97-3.09c0.88-1.64,1.39-3.44,2.06-5.17c0.71-1.84,1.36-3.71,2.07-5.56
	c0.53-1.38,0.98-2.8,1.5-4.19c0.76-2.05,1.45-4.12,2.26-6.15c0.81-2.06,1.57-4.15,2.29-6.24c0.73-2.1,1.52-4.18,2.26-6.28
	c0.45-1.28,0.89-2.58,1.38-3.83c1.14-2.87,2.05-5.81,3.19-8.68c0.57-1.43,1.06-2.9,1.59-4.36c0.54-1.5,1.09-3,1.64-4.5
	c0.1-0.24,0.27-0.4,0.54-0.39c1.17,0.05,2.36-0.15,3.52,0.12c3.07,8.09,6.14,16.18,9.22,24.26c2.23,5.85,4.47,11.7,6.7,17.55
	c1.58,4.13,3.13,8.27,4.72,12.4c0.41,1.07,0.9,2.1,1.73,2.93c0.92,0.91,2.02,1.35,3.29,1.4c1.04,0.04,2.07,0.01,3.11,0.01
	c0.22,0.72,0.19,1.44,0.02,2.16c-7.03,0-14.07,0-21.1,0c-0.19-0.72-0.22-1.43,0.02-2.15c1.87,0,3.74,0,5.67,0
	c-0.34-1.57-1.12-2.92-1.59-4.39c-0.41-1.29-0.95-2.54-1.45-3.8c-0.5-1.27-1.1-2.51-1.51-3.81c-0.4-1.28-1.04-2.46-1.4-3.76
	c-0.1-0.37-0.16-0.79-0.51-1.05c-0.29-0.2-0.62-0.12-0.93-0.12c-7.11,0-14.21,0-21.32,0c-0.31,0-0.64-0.08-0.93,0.12
	c-0.72,1.09-1.01,2.36-1.46,3.55c-1.55,4.09-3.02,8.22-4.51,12.33c-0.09,0.26-0.15,0.53-0.27,0.93c1.83,0,3.63,0,5.44,0
	C144.4,194.64,144.37,195.36,144.17,196.07z"/>
<path class="st5" d="M340.72,111.87c0.6,0.02,1.19,0.04,1.79,0.05c1.42,0.02,3.05-0.9,3.64-2.73c0.11-0.33,0.47-0.67,0.26-1.09
	c0.16-0.34,0.09-0.71,0.09-1.06c0-11.66,0-23.32,0-34.98c0-0.35,0.08-0.72-0.1-1.06c-0.43-1.42-1.61-2.32-3.14-2.36
	c-0.87-0.02-1.74,0-2.6,0c-0.25-0.71-0.21-1.43-0.02-2.14l-0.01,0.01c0.61-0.27,1.26-0.12,1.88-0.12c3.07-0.02,6.13-0.02,9.2,0
	c0.37,0,0.8-0.17,1.12,0.18c1.34,1.84,2.88,3.52,4.34,5.26c8.31,9.92,16.65,19.83,24.97,29.74c0.1,0.12,0.2,0.23,0.41,0.48
	c0-11.21,0-22.24,0-33.4c-1.92,0-3.85,0-5.84,0c0-0.75,0-1.37,0-2.08c4.62,0,9.23,0,13.92,0c0.21,0.58,0.05,1.25,0.09,1.94
	c-0.48,0.22-0.96,0.14-1.42,0.11c-0.68-0.04-1.35,0.09-1.96,0.29c-1.44,0.47-2.26,1.52-2.36,3.07c-0.21,0.42-0.11,0.86-0.11,1.3
	c-0.01,13.47,0,26.94-0.01,40.4c0,0.42,0.15,0.88-0.14,1.28c-0.56,0-1.12,0-1.66,0c-0.74-0.4-1.09-1.15-1.59-1.74
	c-1.56-1.86-3.21-3.65-4.66-5.61c-0.46-0.62-1.05-1.15-1.55-1.76c-1.48-1.79-3.02-3.53-4.52-5.3c-1.73-2.03-3.49-4.04-5.15-6.12
	c-1.88-2.36-3.88-4.62-5.8-6.95c-1.47-1.78-3-3.53-4.5-5.29c-1.49-1.77-3.02-3.5-4.43-5.34c-0.57-0.75-1.21-1.54-2.08-2.28
	c0,12.5,0,24.86,0,37.28c0.9,0.21,1.85,0.08,2.79,0.09c0.96,0.01,1.91-0.03,2.87-0.05c0.48,0.65,0.05,1.37,0.3,2.21
	c-4.79,0.09-9.44,0.01-14.18,0.04C340.58,113.29,340.26,112.57,340.72,111.87z"/>
<path class="st5" d="M244,79.1c0.02-2.38,0.05-4.77,0.05-7.15c0-1.79-0.03-3.58-0.05-5.36c0.25-0.41,0.65-0.21,0.98-0.21
	c13.26-0.01,26.53-0.01,39.79-0.01c0.31,0,0.64-0.09,0.93,0.13l-0.01-0.01c0.24,0.36,0.13,0.77,0.13,1.16
	c0.01,3.46,0.01,6.92,0,10.38c0,0.39,0.11,0.8-0.12,1.16l0.01-0.01c-0.52,0.28-1.05,0.04-1.48,0.12c-0.43-0.25-0.21-0.64-0.41-0.88
	c-0.35-1.47-0.42-2.98-0.91-4.45c-0.89-2.67-2.57-4.34-5.24-5.08c-0.59-0.16-1.23-0.22-1.82-0.23c-2.31-0.06-4.62-0.13-6.92,0.03
	c-0.23,0.37-0.12,0.78-0.12,1.17c-0.01,13.59-0.01,27.19,0,40.78c0,0.39-0.11,0.8,0.12,1.17c1.72,0.19,3.45,0.11,5.18,0.05
	c0.48,0.65,0.05,1.37,0.32,2.25c-6.49,0-12.81,0-19.23,0c0.02-0.83-0.29-1.55,0.16-2.25c0.92,0.02,1.83,0.02,2.75,0.06
	c1.46,0.06,2.73-1.43,2.94-2.85c0.03-0.2,0.01-0.4,0.01-0.6c0-12.11,0-24.21,0-36.32c0-0.91-0.14-1.76-0.78-2.47
	c-0.64-0.71-1.46-1.02-2.35-1.05c-1.52-0.05-3.04-0.08-4.55,0.02c-3,0.18-5.17,1.6-6.31,4.47c-0.5,1.26-0.79,2.54-0.94,3.88
	c-0.08,0.71-0.28,1.4-0.24,2.12C245.23,79.4,244.61,79.46,244,79.1z"/>
<path class="st6" d="M263.11,275.52c0.02-2.11,0.07-4.22,0.06-6.33c0-1.21-0.21-1.74-0.91-2.77c1.7-0.05,3.35,0.1,5.14-0.06
	c-0.66,1.03-1.51,1.86-1.4,3.08c-0.25,0.56,0.03,1.18-0.18,1.74c-0.07,3.26-0.15,6.52-0.06,9.78c-0.03,0.52-0.42,1.1,0.24,1.5
	c1.2-1.71,2.4-3.42,3.6-5.12c1.34-1.9,2.71-3.77,4-5.69c0.53-0.79,1.13-1.57,1.31-2.55c0.14-0.44,0.17-0.87-0.01-1.3
	c-0.1-0.51-0.43-0.9-0.7-1.42c1.67,0.08,3.3,0.1,5.07-0.01c-0.79,1.42-1.7,2.66-1.53,4.26c-0.21,1.79-0.04,3.58-0.1,5.38
	c-0.02,0.48,0.07,0.96-0.07,1.43c0,1.74,0,3.48,0,5.35c1.83-2.6,3.57-5.11,5.35-7.59c1.14-1.58,2.19-3.22,3.27-4.83
	c0.29-0.43,0.49-0.87,0.69-1.33c0.2-0.5,0.17-0.99,0.02-1.49c-0.22-0.36-0.43-0.72-0.68-1.14c1.54,0.01,3.05,0.13,4.73-0.07
	c-0.5,1.04-1.13,1.81-1.66,2.63c-2.64,4.11-5.6,7.98-8.42,11.96c-1.82,2.57-3.67,5.13-5.49,7.69c-0.11,0.16-0.17,0.35-0.25,0.53
	c-0.29,0.07-0.34-0.12-0.34-0.33c0.02-1.24-0.09-2.47,0.07-3.71c0.07-3.49,0.14-6.98,0.07-10.48c-0.01-0.45,0.52-1.02-0.29-1.3
	c-2.16,2.95-4.32,5.89-6.47,8.85c-1.53,2.11-3.03,4.23-4.55,6.34c-0.16,0.22-0.3,0.48-0.69,0.55c0-1.63,0-3.24,0-4.85
	c0.23-2.23,0.03-4.46,0.1-6.69C263.06,276.87,262.95,276.19,263.11,275.52z"/>
<path class="st5" d="M231.66,251.26c-0.83-0.03-1.68,0.05-2.49-0.03c-1.04-0.09-2.13-0.33-3.07-0.78c-0.73-0.34-1.46-0.77-2.14-1.28
	c-1.57-1.17-2.39-2.77-2.97-4.53c-0.15-0.46,0.03-1.02-0.1-1.53c-0.11-0.4-0.12-0.8,0-1.19c0.13-1.07,0.29-2.1,0.78-3.1
	c1.08-2.22,2.8-3.62,5.13-4.31c0.75-0.22,1.53-0.37,2.29-0.55c1.04-0.13,2.07-0.12,3.11-0.01c1.76,0.32,3.42,0.85,4.89,1.92
	c1.94,1.41,3,3.27,3.28,5.65c0.21,1.7-0.04,3.29-0.77,4.81c-0.71,1.48-1.85,2.58-3.23,3.41c-1.06,0.64-2.2,1.16-3.46,1.32
	C232.53,251.27,232.06,251.04,231.66,251.26z"/>
<path class="st6" d="M267.27,237.36c0,1.15,0,2.3,0,3.61c2.86,0,5.71,0,8.57,0c0.29,0.93,0.09,1.87,0.11,2.84
	c-0.57,0.27-1.13,0.13-1.66,0.15c-2.33,0.09-4.67-0.15-6.99,0.13c-0.13,1.27-0.07,2.53-0.03,3.87c3.41,0,6.75,0,10.16,0
	c0.17,1,0.08,1.95,0.06,2.96c-4.52,0-9.01,0-13.62,0c0-5.57,0-11.12,0-16.67c0.41-0.23,0.86-0.11,1.29-0.12
	c3.66-0.01,7.32-0.01,10.98,0c0.38,0,0.8-0.13,1.15,0.14c0,0.93-0.01,1.87-0.01,2.8c-0.34,0.31-0.76,0.15-1.13,0.16
	c-2.57,0.02-5.15,0-7.72,0.01C268.05,237.24,267.64,237.13,267.27,237.36z"/>
<path class="st5" d="M203.13,251.02c-1.04,0-2.07,0-3.03,0c-0.11-0.09-0.14-0.12-0.17-0.15c-0.03-0.03-0.06-0.06-0.06-0.09
	c-0.02-0.28-0.03-0.56-0.03-0.84c0-5.23-0.01-10.47-0.01-15.7c1.1-0.28,2.2-0.03,3.37-0.15c0.28,2.29-0.1,4.48,0.22,6.64l0,0
	c2.78,0.28,5.56,0.02,8.47,0.14c0.14-2.28-0.02-4.46,0.1-6.66c1.19-0.14,2.29-0.09,3.34-0.04c0.28,0.29,0.2,0.58,0.2,0.85
	c0,5.04,0.01,10.07,0,15.11c0,0.3,0.14,0.65-0.18,0.89c-1.07,0-2.15,0-3.22,0c-0.39-0.66-0.14-1.38-0.18-2.08
	c-0.1-1.62,0.14-3.25-0.13-4.86c-2.21-0.19-4.43-0.05-6.65-0.07c-0.58-0.01-1.18-0.17-1.75,0.13c-0.28,1.88-0.04,3.77-0.13,5.65
	C203.28,250.2,203.47,250.65,203.13,251.02z"/>
<path class="st6" d="M186.12,269.52c0.04-1.11-0.2-2.14-0.95-3.14c2.4,0.12,4.71-0.07,7.01,0.07c2.84,0.18,4.78,1.65,5.52,4.5
	c0.14,0.72,0.11,1.43,0.02,2.15c-0.12,0.37-0.22,0.75-0.37,1.11c-0.58,1.34-1.47,2.42-2.81,3.08c-0.46,0.22-0.91,0.45-1.41,0.69
	c1.72,3.98,3.27,8.04,6.51,11.1c-1.12,0.63-2.79,0.38-3.67-0.51c-0.89-0.9-1.53-1.93-2.11-3.06c-1.09-2.12-2.09-4.26-2.86-6.51
	c-0.16-0.47-0.38-0.63-0.84-0.63c-0.88,0.01-1.76,0-2.69,0c-0.46,0.74-0.41,1.69-0.54,2.56c-0.23,1.48-0.55,2.95-0.58,4.46
	c-0.02,1.2-0.08,2.39,0.82,3.56c-1.76-0.13-3.37-0.09-5.08-0.01c1.06-1.42,1.44-2.93,1.72-4.54c0.26-1.51,0.41-3.04,0.71-4.54
	c0.34-1.73,0.59-3.48,0.88-5.21c0.2-1.2,0.51-2.41,0.53-3.65C186.17,270.55,185.93,270.01,186.12,269.52z"/>
<path class="st1" d="M225.54,279.84c-0.36,1.73-0.83,3.42-1.52,5.04c0.19,0.4,0.33,0.77,0.55,1.1c0.81,1.24,2.55,1.39,3.35,0.17
	c1.21-1.82,1.71-3.81,1.35-6.07c-0.29-1.82-1.27-3.05-2.56-4.16c0.53-0.65,1.12-1.15,1.94-1.38c1.79,1.34,1.91,3.35,2.17,5.31
	c0.12,0.56,0.12,1.12,0,1.67c-0.27,1.42-0.4,2.86-0.95,4.24c-0.43,1.07-1.02,1.95-1.84,2.71c-1.41,1.29-3.52,0.94-4.41-0.74
	c-0.18-0.34-0.32-0.7-0.7-0.97c-0.77,1.06-1.48,2.23-2.94,2.48c-0.4,0.12-0.8,0.12-1.19,0c-1.97-0.19-2.73-1.89-2.82-3.47
	c-0.09-1.69,0.36-3.2,1.15-4.63c0.64-1.15,1.41-2.22,2.14-3.33c0.25-0.38,0.52-0.74,0.8-1.13c-0.39-0.33-0.78-0.26-1.17-0.23
	c-0.5-0.21-1.04,0.01-1.54-0.17c-0.35,0-0.72-0.07-1.06,0c-1.25,0.25-1.6,1.33-0.79,2.35c0.17,0.21,0.36,0.41,0.55,0.62
	c-0.44,0.53-0.87,1.03-1.3,1.54c-1.49-1.11-1.64-3.2-0.43-4.76c1.04-1.33,2.52-1.55,4.03-1.67c0.83-0.06,1.66-0.01,2.5-0.01
	c0.56,0.26,1.22-0.11,1.77,0.25c-0.93,1.6-1.91,3.16-2.76,4.8c-0.8,1.56-1.64,3.14-1.62,4.99c0,0.6-0.02,1.2,0.3,1.73
	c0.57,0.98,1.6,1.18,2.49,0.48c0.25-0.2,0.48-0.42,0.72-0.63c0.9-0.77,1.41-1.69,1.14-2.92c0.2-0.41,0-0.87,0.17-1.28
	c0.14-1.13,0.25-2.27,0.67-3.33c0.53-0.17,0.96,0.32,1.49,0.22C225.77,278.92,225.63,279.39,225.54,279.84z"/>
<path class="st7" d="M295.96,286.8c0.24-1.22,0.58-2.41,1.03-3.59c0.5-1.3,0.84-2.67,1.19-4.02c0.07-0.26,0.38-0.43,0.25-0.74
	c0.17-0.52,0.15-1.05,0.01-1.57c-0.72-0.66-1.46-0.51-2.2-0.04c-1.62,1.02-2.47,2.61-3.13,4.33c-0.68,1.77-0.91,3.66-1.41,5.48
	c-0.22,0.79-0.38,1.59-0.58,2.44c-0.8,0.14-1.46-0.25-2.27-0.42c0.21-0.86,0.33-1.61,0.57-2.33c0.84-2.55,1.41-5.18,2.03-7.78
	c0.38-1.58,0.81-3.15,1.13-4.75c0.31-1.6,0.74-3.18,1.06-4.78c0.26-1.3-0.16-2.45-0.95-3.48c1.44-0.3,2.89-0.54,4.3,0.12
	c-0.69,1.22-0.81,2.61-1.15,3.92c-0.6,2.26-1.09,4.55-1.73,6.81c-0.06,0.22-0.01,0.47-0.01,0.76c0.28-0.11,0.4-0.28,0.57-0.5
	c0.7-0.93,1.44-1.77,2.65-2.17c1.58-0.51,3.11,0.08,3.53,1.74c0.11,0.48,0.12,0.96-0.01,1.43c-0.87,2.74-1.75,5.48-2.61,8.23
	c-0.11,0.37-0.2,0.77,0.02,1.21c1.24-0.4,1.85-1.6,2.79-2.27c0.26,0.14,0.29,0.31,0.23,0.45c-0.55,1.51-1.39,2.81-2.84,3.62
	c-0.98,0.54-1.81,0.37-2.45-0.44C295.83,287.92,295.87,287.36,295.96,286.8z"/>
<path class="st6" d="M259.29,234.32c-0.07,0.91-0.07,1.82,0,2.73c-0.9,0.43-1.85,0.09-2.77,0.18c-0.97,0.1-1.96-0.17-2.93,0.14
	l-0.02,0.02c-0.26,0.36-0.13,0.77-0.13,1.16c-0.01,3.78,0,7.56-0.01,11.33c0,0.38,0.16,0.8-0.16,1.14c-1.04,0-2.07,0-3.04,0
	c-0.39-0.36-0.25-0.74-0.25-1.08c-0.01-3.8,0-7.6-0.01-11.4c0-0.39,0.1-0.8-0.09-1.18c-1.85-0.32-3.73,0.02-5.67-0.19
	c-0.21-0.97-0.09-1.94-0.07-2.83c0.27-0.29,0.53-0.22,0.76-0.22c4.51-0.01,9.02-0.01,13.53,0
	C258.7,234.13,259.05,233.98,259.29,234.32z"/>
<path class="st8" d="M296.42,251.02c-4.46,0-8.92,0-13.53,0c-0.02-5.6-0.04-11.16-0.05-16.72c1.08-0.39,2.19-0.07,3.45-0.19
	c0.01,4.59,0,9.08,0.01,13.69c3.46,0.01,6.8,0,10.26,0.01C296.56,248.94,296.81,249.98,296.42,251.02z"/>
<path class="st9" d="M161.21,274.52c0.6,0.22,1.08,0.65,1.58,1.01c0.66-0.12,1.26-0.48,2.05-0.45c-0.36,1.1-0.66,2.13-1.04,3.14
	c-0.9,2.39-1.54,4.85-2.23,7.29c-0.14,0.51-0.18,1-0.11,1.69c1.44-0.5,2.09-1.84,3.19-2.64c0.19,1.48-1.14,3.37-3.2,4.66
	c-0.48,0.16-0.96,0.16-1.44,0c-0.57-0.22-0.67-0.71-0.69-1.23c-0.03-0.76,0.01-1.53,0.34-2.36c-0.56,0.06-0.69,0.4-0.87,0.66
	c-0.75,1.08-1.56,2.09-2.71,2.79c-1.57,0.96-3.55-0.01-3.7-1.83c-0.13-1.58,0.19-3.06,0.69-4.58c0.86-2.62,2.36-4.78,4.24-6.72
	c0.74-0.76,1.66-1.22,2.69-1.44C160.42,274.41,160.82,274.4,161.21,274.52z"/>
<path class="st1" d="M309.88,286.8c0.02-0.15,0.04-0.31,0.05-0.46c0.12-0.28,0.29-0.59-0.27-0.51c-0.71,0.89-1.35,1.84-2.22,2.61
	c-0.82,0.72-1.71,1.12-2.83,0.97c-0.4-0.06-0.8-0.19-0.99-0.48c-0.42-0.63-0.79-1.27-0.82-2.12c-0.12-3.19,1.29-5.82,2.94-8.34
	c0.69-1.05,1.43-2.1,2.52-2.87c0.69-0.49,1.39-0.82,2.16-1.06c0.4-0.12,0.79-0.11,1.19-0.01c0.62,0.19,1.14,0.53,1.54,1
	c0.76,0.01,1.35-0.54,2.15-0.42c-0.6,1.81-1.21,3.59-1.77,5.38c-0.56,1.78-1.06,3.58-1.6,5.37c-0.12,0.4-0.04,0.78-0.07,1.27
	c1.68-0.33,2.36-1.79,3.46-2.72c-0.44,2.15-1.52,3.81-3.47,4.84c-0.39,0.14-0.79,0.11-1.19,0.02c-0.35-0.04-0.61-0.21-0.76-0.54
	C309.75,288.08,309.77,287.44,309.88,286.8z"/>
<path class="st1" d="M200.99,282.48c0.11-1.35,0.43-2.69,1.06-3.85c0.77-1.42,1.58-2.92,3.09-3.72c2.64-1.39,5.25-0.31,6.17,2.73
	c0.1,0.33,0.24,0.66,0.31,1.01c0.14,0.96,0.13,1.92,0.01,2.87c-0.42,1.76-0.88,3.5-1.96,5.01c-0.88,1.23-1.99,2.15-3.35,2.77
	c-1.26,0.57-3.36-0.11-4.23-1.2c-0.65-0.82-0.97-1.73-1.09-2.74C200.86,284.4,200.87,283.44,200.99,282.48z"/>
<path class="st10" d="M240.43,283.9c-0.66,2.38-1.71,4.29-3.88,5.38c-1.3,0.66-3.1-0.02-3.68-1.34c-0.2-0.46-0.35-0.91-0.38-1.44
	c-0.22-3.25,0.92-6.06,2.64-8.7c0.71-1.09,1.61-2.02,2.71-2.75c0.6-0.4,1.25-0.59,1.94-0.7c1.8-0.27,3.16,1.12,2.67,3.16
	c-0.25,1.03-0.86,1.88-1.72,2.49c-1.72,1.23-3.62,2.07-5.75,2.27c-0.45,1.11-0.41,2.26-0.36,3.4c0.07,1.48,1.01,2.05,2.3,1.34
	c1.04-0.57,1.8-1.49,2.55-2.4C239.68,284.34,239.8,283.97,240.43,283.9z"/>
<path class="st10" d="M321.96,276.96c-0.03,0.15-0.05,0.31-0.08,0.46c-0.13,0.31,0.12,0.7-0.14,0.94c0.2-0.14,0.13-0.52,0.39-0.69
	c0.29-0.77,0.71-1.47,1.16-2.14c0.74-1.11,2.24-1.49,3.47-1.02c0.43,0.16,0.63,0.38,0.66,0.85c0.05,1.08-0.32,2.17-1.1,3.04
	c-0.38-0.15-0.36-0.58-0.56-0.83c-0.2-0.25-0.15-0.64-0.5-0.78c-1.06-0.37-1.63,0.32-2.13,1.06c-0.96,1.41-1.45,3.04-1.9,4.66
	c-0.53,1.89-0.96,3.81-1.25,5.76c-0.04,0.27-0.17,0.53-0.26,0.78c-0.81,0.43-1.51-0.09-2.27-0.25c0.25-1.36,0.62-2.69,0.93-4.04
	c0.38-1.67,0.71-3.36,1.1-5.04c0.21-0.93,0.34-1.88,0.46-2.83c0.04-0.34-0.5-0.58-0.81-0.35c-0.51,0.38-0.95,0.85-1.33,1.36
	c-0.11,0.16-0.21,0.33-0.31,0.51c-0.19-0.22-0.45-0.31-0.29-0.7c0.35-0.86,0.77-1.68,1.31-2.42c0.4-0.54,1.02-0.79,1.67-0.94
	c0.87-0.2,1.33,0.33,1.75,0.94C322.1,275.84,322.06,276.4,321.96,276.96z"/>
<path class="st8" d="M251.04,278.98c-0.32-0.67-0.55-1.12-0.76-1.58c-0.23-0.51-0.61-0.92-1.03-1.26c-0.65-0.53-1.37-0.57-1.95-0.17
	c-0.47,0.33-0.71,1.2-0.56,1.89c0.26,1.22,0.94,2.24,1.52,3.31c0.45,0.83,0.89,1.67,1.29,2.53c0.53,1.12,0.53,2.28,0.17,3.47
	c-0.35,1.12-1.86,2.32-3.16,2.28c-1.67-0.05-1.73-0.01-3.61-0.89c-0.26-1.33-0.22-2.68,0.21-4.01c0.4,0.02,0.5,0.19,0.59,0.43
	c0.22,0.59,0.45,1.18,0.75,1.72c0.79,1.4,1.51,1.62,3.01,1.03c1.07-1.51,0.34-2.9-0.44-4.16c-0.67-1.09-1.33-2.21-1.78-3.38
	c-0.5-1.27-0.58-2.67,0.11-4.05c0.52-1.03,1.34-1.5,2.34-1.72c1.14-0.25,2.28-0.16,3.36,0.37c0.39,0.19,0.69,0.42,0.72,0.87
	C251.88,276.79,251.73,277.86,251.04,278.98z"/>
<path class="st11" d="M166.69,286.56c0.35-2.08,0.96-4.1,1.48-6.15c0.26-1.02,0.4-2.07,0.74-3.08c0.06-0.16-0.02-0.38-0.05-0.62
	c-0.5,0-0.96,0-1.39,0c-0.41-0.51-0.18-0.91,0.09-1.31c0.05-0.02,0.12-0.05,0.2-0.07c0.57-0.1,1.24,0.17,1.7-0.3
	c0.41-0.43,0.26-1.09,0.41-1.64c0.33-1.25,0.27-1.32,1.52-1.44c0.31-0.03,0.63-0.09,0.98,0.03c-0.02,1.02-0.67,1.94-0.62,2.98
	c0.36,0.17,0.67,0.07,0.98,0.04c0.56-0.09,1.12-0.17,1.67,0.04c-0.29,1.4-1.14,1.93-2.53,1.65c-0.19-0.04-0.39,0.02-0.63,0.04
	c-0.48,1.21-0.7,2.48-1.02,3.71c-0.5,1.93-0.98,3.87-1.49,5.8c-0.08,0.3-0.11,0.55,0.16,0.74c0.26,0.18,0.48,0.08,0.75-0.07
	c0.87-0.49,1.46-1.29,2.16-1.95c0.19-0.18,0.34-0.25,0.54-0.31c0.23,0.25,0.08,0.45-0.02,0.67c-0.63,1.48-1.44,2.8-2.87,3.65
	c-0.71,0.42-1.47,0.27-2.17,0.12c-0.44-0.1-0.46-0.69-0.61-1.1C166.58,287.52,166.57,287.04,166.69,286.56z"/>
<path class="st12" d="M109.66,141.58c0.27,0.3,0.21,0.68,0.21,1.03c0.01,6.59,0,13.19,0,19.78c0,0.15,0.04,0.32-0.17,0.49
	c-10.47,0-21,0-31.54,0c-0.27-0.25-0.15-0.59-0.15-0.89c-0.01-7.43-0.01-14.86,0.01-22.3c0-0.3-0.24-0.71,0.21-0.93
	c0,7.94,0,15.88,0,23.89c10.49,0,20.89,0,31.42,0C109.66,155.62,109.66,148.6,109.66,141.58z"/>
<path class="st12" d="M395.07,193.83c-0.3-0.21-0.13-0.51-0.13-0.76c-0.01-17.83-0.01-35.66,0-53.5c0-0.25-0.17-0.56,0.13-0.76
	C395.07,157.15,395.07,175.49,395.07,193.83z"/>
<path class="st12" d="M200.8,141.57c0.32,0.38,0.21,0.84,0.21,1.26c0.01,15.66,0.01,31.32,0,46.98c0,0.43,0.11,0.89-0.21,1.26
	c0-5.95-0.01-11.91-0.01-17.86C200.79,162.67,200.8,152.12,200.8,141.57z"/>
<path class="st12" d="M386.7,141.75c0.28,0.35,0.18,0.76,0.18,1.15c0.01,15.61,0.01,31.23,0,46.84c0,0.39,0.11,0.8-0.18,1.15
	c-0.01-0.32-0.03-0.64-0.03-0.96c0-15.74,0-31.49,0-47.23C386.67,142.39,386.69,142.07,386.7,141.75z"/>
<path class="st12" d="M268.91,111.82c-0.42-0.29-0.19-0.73-0.19-1.08c-0.02-5.83-0.01-11.66-0.01-17.49c0-7.83,0-15.66,0.01-23.49
	c0-0.35-0.25-0.78,0.19-1.07C268.91,83.07,268.91,97.45,268.91,111.82z"/>
<path class="st12" d="M384.72,114.95c0.02-0.48,0.05-0.96,0.05-1.43c0-13.26,0-26.53,0.01-39.79c0-0.59-0.14-1.2,0.21-1.75
	c0,14.06,0.01,28.11,0,42.17C384.99,114.42,385.17,114.8,384.72,114.95z"/>
<path class="st12" d="M285.69,66.5c-0.4-0.01-0.8-0.02-1.2-0.02c-13.02,0-26.05,0-39.07,0c-0.48,0-0.96-0.08-1.42,0.11
	c0-0.18,0.08-0.32,0.26-0.33c0.32-0.02,0.64-0.01,0.96-0.01c13.1,0,26.19,0,39.29,0.01C284.9,66.25,285.38,66.01,285.69,66.5z"/>
<path class="st12" d="M111.34,70.76c0.3,0.34,0.2,0.76,0.21,1.14c0.01,12.23,0.01,24.46,0,36.69c0,0.39,0.11,0.81-0.19,1.15
	c-0.01-0.08-0.02-0.16-0.02-0.24C111.34,96.59,111.34,83.68,111.34,70.76z"/>
<path class="st12" d="M346.4,70.98c0.27,0.35,0.16,0.77,0.16,1.16c0.01,11.6,0.01,23.19,0,34.79c0,0.39,0.09,0.8-0.16,1.16
	c-0.01-0.28-0.03-0.56-0.03-0.84c0-11.85,0-23.7,0-35.55C346.38,71.46,346.39,71.22,346.4,70.98z"/>
<path class="st12" d="M215.35,251.02c0.03-0.28,0.08-0.55,0.08-0.83c0-5.11,0-10.22,0-15.32c0-0.19,0-0.38,0-0.63
	c-1.14,0-2.2,0-3.35,0c0,2.17,0,4.35,0,6.39c-0.23,0.33-0.44,0.3-0.64,0.3c-2.47,0-4.95,0-7.42,0c-0.21,0-0.49,0.11-0.61-0.19
	c2.75,0,5.5,0,8.37,0c0-2.24,0-4.41,0-6.65c1.33-0.14,2.54-0.07,3.69-0.06c0.25,0.34,0.18,0.62,0.18,0.89
	c0,5.03,0.01,10.06-0.01,15.09C215.65,250.34,215.94,250.82,215.35,251.02z"/>
<path class="st12" d="M296.42,251.02c0.16-0.99,0.04-1.98,0.08-3.08c-3.41,0-6.77,0-10.26,0c0-4.62,0-9.14,0-13.76
	c-1.22,0.04-2.32-0.12-3.41,0.12c0.04-0.25,0.21-0.3,0.43-0.3c0.99,0,1.99,0,3.14,0c0.02,1.55,0.01,3.05,0.01,4.55
	c0,1.48,0,2.96,0,4.43c0,1.51,0,3.03,0,4.66c3.44,0,6.81,0,10.28,0c0,1.14,0,2.17-0.01,3.19
	C296.69,250.9,296.51,250.96,296.42,251.02z"/>
<path class="st12" d="M78.23,193.88c-0.46-0.32-0.21-0.79-0.21-1.17c-0.02-8.59-0.02-17.18-0.02-25.77c0-0.64,0-1.28,0-1.92
	c0-0.16,0.01-0.32,0.22-0.33C78.23,174.42,78.23,184.15,78.23,193.88z"/>
<path class="st12" d="M105.57,113.99c0.4,0.02,0.79,0.07,1.19,0.07c8.4-0.01,16.8-0.03,25.2-0.05c0.08,0,0.16,0.02,0.24,0.03
	c-0.18,0.32-0.5,0.19-0.75,0.19c-8.34,0.01-16.68,0.01-25.03,0C106.13,114.23,105.76,114.41,105.57,113.99z"/>
<path class="st12" d="M109.65,164.69c0.37,0.07,0.22,0.37,0.22,0.57c0.01,8.26,0.01,16.52,0,24.78c0,0.35,0.06,0.73-0.21,1.02
	C109.65,182.27,109.65,173.48,109.65,164.69z"/>
<path class="st12" d="M259.29,234.32c-0.25-0.14-0.53-0.14-0.81-0.14c-4.7,0-9.4,0-14.24,0c-0.11,0.98-0.04,1.95-0.05,3.05
	c1.57,0,3.06-0.01,4.56,0.01c0.37,0.01,0.78-0.17,1.12,0.13c-1.91,0-3.82,0-5.88,0c-0.04-1.09-0.03-2.14,0-3.16
	c0.25-0.3,0.55-0.2,0.81-0.2c4.54-0.01,9.07-0.01,13.61,0.01C258.71,234.01,259.16,233.77,259.29,234.32z"/>
<path class="st12" d="M129.79,66.44c-0.84,0.01-1.68,0.04-2.51,0.04c-6.79,0-13.59,0-20.38,0c-0.44,0-0.88,0.02-1.32,0.04
	c0.24-0.52,0.7-0.26,1.05-0.26c3.19-0.02,6.39-0.01,9.58-0.01c4.15,0,8.31-0.01,12.46,0.01C129.05,66.25,129.48,66.04,129.79,66.44z
	"/>
<path class="st12" d="M255.33,111.87c-0.41,0.68-0.09,1.38-0.22,2.14c6.41,0,12.7,0,19.1,0c-0.03-0.74,0.13-1.44-0.13-2.14
	c0.18,0,0.32,0.08,0.33,0.26c0.01,0.67,0,1.34,0,2.05c-6.51,0-12.9,0-19.41,0c0-0.72-0.01-1.38,0-2.05
	C255.01,111.95,255.16,111.87,255.33,111.87z"/>
<path class="st12" d="M144.95,177.12c0.08-0.27,0.31-0.19,0.49-0.19c7.4,0,14.81,0,22.21,0c0.17,0,0.41-0.09,0.48,0.19
	C160.4,177.12,152.67,177.12,144.95,177.12z"/>
<path class="st12" d="M340.72,111.87c-0.22,0.7-0.09,1.4-0.11,2.14c4.69,0,9.28,0,13.98,0c-0.06-0.75,0.15-1.45-0.17-2.14
	c0.18,0.01,0.32,0.08,0.32,0.26c0.01,0.67,0,1.33,0,2.05c-4.83,0-9.55,0-14.37,0c0-0.72-0.01-1.39,0-2.05
	C340.4,111.95,340.55,111.88,340.72,111.87z"/>
<path class="st12" d="M253.26,251.02c0.22-0.41,0.14-0.86,0.14-1.29c0.01-3.74,0-7.49,0.01-11.23c0-0.37-0.2-0.78,0.16-1.11
	c0,4.2,0,8.4-0.03,12.6C253.54,250.34,253.82,250.81,253.26,251.02z"/>
<path class="st12" d="M277.29,234.27c-0.27-0.03-0.55-0.09-0.82-0.09c-3.97-0.01-7.93-0.01-11.9,0c-0.24,0-0.47,0.05-0.71,0.07
	c0.11-0.31,0.36-0.25,0.59-0.25c4.09,0,8.17,0,12.26,0C276.95,234,277.21,233.95,277.29,234.27z"/>
<path class="st12" d="M208.71,98.87c-0.51-0.14-1.03-0.06-1.7-0.06c-0.01,3.7-0.03,7.4-0.04,11.1c-0.06-0.09-0.18-0.19-0.18-0.28
	c-0.01-3.61-0.01-7.22-0.01-10.9C207.47,98.69,208.11,98.4,208.71,98.87z"/>
<path class="st12" d="M285.69,79.19c0-4.24,0-8.47-0.01-12.71c0.24,0.07,0.26,0.25,0.26,0.46c0,3.93,0,7.85,0,11.78
	C285.94,78.93,285.92,79.12,285.69,79.19z"/>
<path class="st12" d="M352.83,66.55c-0.28-0.03-0.55-0.08-0.83-0.08c-3.79,0-7.58,0.01-11.37,0.02c0.1-0.31,0.36-0.25,0.59-0.25
	c3.66,0,7.31,0,10.97,0C352.43,66.24,352.77,66.12,352.83,66.55z"/>
<path class="st12" d="M267.3,244.08c0.15-0.38,0.48-0.18,0.71-0.18c2.2-0.02,4.39-0.01,6.59-0.01c0.39,0,0.78,0,1.24,0
	c0-1.03,0-1.98,0-2.92c0.17,0.05,0.26,0.16,0.26,0.34c0,0.87,0,1.74,0,2.77C273.13,244.08,270.21,244.08,267.3,244.08z"/>
<path class="st12" d="M237.94,79.67c0.06-3.43,0.07-6.87,0-10.3c0.24,0.06,0.28,0.24,0.28,0.45c0,3.13,0,6.27,0,9.4
	C238.21,79.43,238.18,79.61,237.94,79.67z"/>
<path class="st12" d="M203.42,240.73c-0.29-0.3-0.14-0.68-0.14-1.02c-0.02-1.79-0.01-3.58-0.01-5.54c-1.17,0.02-2.3-0.08-3.44,0.07
	c0.06-0.16,0.18-0.25,0.36-0.25c1.03,0,2.06,0,3.23,0C203.42,236.29,203.42,238.51,203.42,240.73z"/>
<path class="st12" d="M267.27,237.36c0.16-0.43,0.53-0.22,0.8-0.22c2.63-0.02,5.27-0.01,7.9-0.01c0.44,0,0.88-0.03,1.31-0.05
	c-0.17,0.52-0.61,0.27-0.92,0.28C273.34,237.37,270.31,237.36,267.27,237.36z"/>
<path class="st12" d="M263.11,275.52c-0.03,2.84-0.05,5.67-0.08,8.51c0,0.07-0.06,0.14-0.09,0.22c-0.01-2.74-0.02-5.47-0.03-8.21
	C262.91,275.83,262.9,275.64,263.11,275.52z"/>
<path class="st12" d="M211.82,244.08c0.4,0.13,0.21,0.46,0.21,0.69c0.02,1.69,0.01,3.38,0.01,5.08c0,0.39-0.04,0.79,0.08,1.17
	c-0.49-0.1-0.3-0.49-0.3-0.77C211.82,248.19,211.82,246.13,211.82,244.08z"/>
<path class="st12" d="M203.13,251.02c0.2-0.37,0.14-0.77,0.14-1.16c0.01-1.7,0-3.4,0.01-5.1c0-0.21-0.13-0.48,0.15-0.63
	c0,2.03,0.01,4.07-0.01,6.1C203.42,250.51,203.61,250.9,203.13,251.02z"/>
<path class="st12" d="M277.58,277.44c0.01-2.04,0.01-4.09,0.02-6.13c0-0.23-0.01-0.48,0.15-0.67c0.01,2.1,0.02,4.2,0.03,6.29
	C277.79,277.13,277.79,277.32,277.58,277.44z"/>
<path class="st12" d="M253.6,237.38c0.16-0.26,0.42-0.15,0.64-0.15c1.3-0.01,2.61,0,3.91-0.01c0.39,0,0.79,0.07,1.15-0.17
	c-0.09,0.49-0.48,0.3-0.75,0.31C256.89,237.37,255.24,237.37,253.6,237.38z"/>
<path class="st12" d="M296.99,265.68c-0.07-0.09-0.13-0.25-0.2-0.25c-1.37-0.01-2.74-0.15-4.1,0.13c0-0.17,0.06-0.33,0.24-0.34
	c1.4-0.01,2.8-0.01,4.15-0.01C297.23,265.49,297.14,265.6,296.99,265.68z"/>
<path class="st12" d="M375.44,168.72c0-1.6,0-3.2,0-4.79c0.15,0.09,0.21,0.22,0.21,0.39c0,1.34,0,2.68,0,4.02
	C375.64,168.5,375.59,168.63,375.44,168.72z"/>
<path class="st12" d="M274.86,285.12c0.01,1.12,0,2.24,0.03,3.35c0.01,0.24-0.18,0.58,0.24,0.68c-0.02,0.12-0.08,0.22-0.25,0.25
	c-0.05-0.06-0.19-0.14-0.2-0.22c-0.02-1.26-0.02-2.53-0.01-3.79C274.67,285.31,274.8,285.21,274.86,285.12z"/>
<path class="st12" d="M419.8,153.74c0.31,1.59,0.31,3.18,0,4.76C419.8,156.92,419.8,155.33,419.8,153.74z"/>
<path class="st12" d="M161.21,135.37c-1.11-0.02-2.23-0.02-3.34-0.05c-0.32-0.01-0.53,0.12-0.72,0.33
	c-0.01-0.24-0.01-0.51,0.32-0.51c1.21,0,2.41-0.08,3.62,0.05C161.14,135.19,161.17,135.31,161.21,135.37z"/>
<path class="st12" d="M336.76,275.05c-1.06-0.22-2.13,0.1-3.2-0.07c-0.16-0.2-0.06-0.36,0.07-0.51c0.12,0.43,0.48,0.32,0.77,0.32
	c0.82,0.01,1.63,0.01,2.45,0.02c0.01,0,0.05,0.07,0.04,0.08C336.85,274.95,336.8,275,336.76,275.05z"/>
<path class="st12" d="M243.05,157.68c0-1.12,0-2.24,0-3.35C243.37,155.44,243.36,156.56,243.05,157.68z"/>
<path class="st12" d="M232.21,233.95c-1.04,0-2.07,0.01-3.11,0.01C229.91,233.68,231.36,233.68,232.21,233.95z"/>
<path class="st12" d="M209.14,76.32c0,1.04,0,2.07,0,3.11C208.82,78.4,208.81,77.36,209.14,76.32z"/>
<path class="st12" d="M200.99,282.48c0,0.96,0,1.92,0,2.87C200.67,284.4,200.67,283.44,200.99,282.48z"/>
<path class="st12" d="M211.62,281.52c0-0.96,0-1.92-0.01-2.87C211.95,279.6,211.94,280.56,211.62,281.52z"/>
<path class="st12" d="M428.93,157.44c0-0.96,0-1.92,0-2.87C429.25,155.52,429.24,156.48,428.93,157.44z"/>
<path class="st12" d="M303.25,150.72c0-0.88,0-1.76,0-2.63C303.57,148.96,303.58,149.84,303.25,150.72z"/>
<path class="st12" d="M400.13,173.53c-0.03,0.51-0.06,1.01-0.09,1.44c0.23,0.41,0.66,0.18,0.87,0.45c-0.31,0.01-0.62,0.09-0.99-0.1
	C399.98,174.74,399.57,174.09,400.13,173.53z"/>
<path class="st12" d="M214.25,173.53c-0.03,0.51-0.05,1.01-0.07,1.45c0.21,0.41,0.64,0.17,0.85,0.44c-0.31,0-0.61,0-1.01,0
	C214.1,174.74,213.67,174.09,214.25,173.53z"/>
<path class="st12" d="M283.8,78.43c0.1,0.24,0.2,0.48,0.31,0.76c0.52,0,1.05,0,1.59,0c-0.52,0.53-1.15,0.11-1.69,0.25
	C283.65,79.12,283.82,78.76,283.8,78.43z"/>
<path class="st12" d="M266.01,282.48c-0.02,0.1-0.03,0.22-0.08,0.31c-0.03,0.05-0.13,0.05-0.3,0.09c0.08-0.66-0.09-1.29,0.14-1.91
	C265.93,281.46,265.53,282.04,266.01,282.48z"/>
<path class="st12" d="M343.74,197.8c0.8,0,1.59,0,2.39,0C345.34,198.12,344.54,198.11,343.74,197.8z"/>
<path class="st12" d="M144.22,78c0-0.8,0.01-1.6,0.01-2.39C144.54,76.4,144.55,77.2,144.22,78z"/>
<path class="st12" d="M406.59,175.61c-0.31-0.15-0.16-0.32,0.03-0.34c0.62-0.04,1.25-0.03,1.87-0.04c-0.21,0.35-0.55,0.15-0.83,0.2
	C407.31,175.51,406.9,175.27,406.59,175.61z"/>
<path class="st12" d="M84.72,196.08c0.1-0.72,0.13-1.44-0.02-2.16C85.04,194.66,85.05,195.26,84.72,196.08z"/>
<path class="st12" d="M102.72,193.93c-0.11,0.72-0.09,1.43-0.02,2.15C102.35,195.34,102.35,194.6,102.72,193.93z"/>
<path class="st12" d="M128.6,193.92c-0.18,0.72-0.14,1.44-0.03,2.16C128.26,195.25,128.27,194.66,128.6,193.92z"/>
<path class="st12" d="M144.17,196.07c0.06-0.71,0.07-1.43-0.02-2.14C144.53,194.6,144.54,195.35,144.17,196.07z"/>
<path class="st12" d="M168.92,193.93c-0.11,0.72-0.09,1.43-0.02,2.15C168.54,195.34,168.55,194.6,168.92,193.93z"/>
<path class="st12" d="M190,196.08c0.09-0.72,0.11-1.44-0.02-2.16C190.34,194.65,190.34,195.28,190,196.08z"/>
<path class="st12" d="M193.87,193.93c-0.1,0.71-0.08,1.43-0.02,2.15C193.49,195.35,193.49,194.6,193.87,193.93z"/>
<path class="st12" d="M379.74,193.93c-0.12,0.72-0.1,1.43-0.02,2.15C379.37,195.33,379.38,194.61,379.74,193.93z"/>
<path class="st12" d="M340.63,66.49c-0.04,0.71-0.07,1.43,0.02,2.14C340.28,67.97,340.27,67.22,340.63,66.49z"/>
<path class="st12" d="M197.72,273.12c-0.01-0.72-0.01-1.44-0.02-2.15C198.06,271.68,198.03,272.4,197.72,273.12z"/>
<path class="st12" d="M379.73,136.56c-0.1,0.72-0.1,1.44,0,2.15C379.38,138,379.38,137.28,379.73,136.56z"/>
<path class="st12" d="M193.86,136.57c-0.08,0.72-0.08,1.43,0,2.15C193.49,138.01,193.49,137.27,193.86,136.57z"/>
<path class="st12" d="M102.71,136.57c-0.09,0.72-0.09,1.43,0,2.15C102.35,138.01,102.35,137.27,102.71,136.57z"/>
<path class="st12" d="M84.71,138.72c0.13-0.72,0.13-1.44,0-2.16C85.04,137.33,85.04,137.95,84.71,138.72z"/>
<path class="st12" d="M274.64,273.35c0.05-0.16,0.14-0.26,0.45-0.32c-0.11,0.55,0.08,1.09-0.16,1.61
	C274.78,274.23,275.16,273.69,274.64,273.35z"/>
<path class="st12" d="M174.4,275.04c-0.56-0.01-1.11-0.03-1.67-0.04c0.58-0.37,1.18-0.22,1.79-0.11c-0.01,0.03,0,0.07-0.02,0.09
	C174.47,275.01,174.43,275.02,174.4,275.04z"/>
<path class="st12" d="M215.64,75.18c-0.29-0.68-0.29-1.37-0.01-2.05C215.64,73.81,215.64,74.49,215.64,75.18z"/>
<path class="st12" d="M244,79.1c0.62,0.19,1.24,0.15,1.86,0.03C245.21,79.58,244.55,79.56,244,79.1z"/>
<path class="st12" d="M220.61,175.41c0.64-0.35,1.33-0.14,2-0.17C221.98,175.66,221.28,175.36,220.61,175.41z"/>
<path class="st12" d="M309.88,286.8c0.01,0.64,0.01,1.28,0.02,1.91C309.56,288.08,309.58,287.44,309.88,286.8z"/>
<path class="st12" d="M338.44,88.88c-0.24-0.57-0.18-1.16-0.18-1.75C338.66,87.67,338.4,88.29,338.44,88.88z"/>
<path class="st12" d="M234.09,156.96c0.03,0.6,0.1,1.21-0.17,1.78C233.95,158.15,233.71,157.53,234.09,156.96z"/>
<path class="st12" d="M265.83,271.2c-0.02-0.59-0.12-1.19,0.18-1.74C265.97,270.04,266.22,270.65,265.83,271.2z"/>
<path class="st12" d="M222.61,274.59c-0.58-0.15-1.21,0.04-1.77-0.25c0.44-0.01,0.88-0.02,1.32-0.03
	C222.37,274.31,222.55,274.35,222.61,274.59z"/>
<path class="st12" d="M233.92,153.5c0.27,0.57,0.2,1.18,0.17,1.78C233.71,154.72,233.95,154.1,233.92,153.5z"/>
<path class="st12" d="M330.89,275.07c-0.55,0.31-1.19,0.05-1.75,0.31c0-0.24,0.14-0.34,0.36-0.34
	C329.97,275.05,330.43,275.06,330.89,275.07z"/>
<path class="st12" d="M321.96,276.96c-0.01-0.56-0.02-1.12-0.02-1.67C322.3,275.84,322.26,276.39,321.96,276.96z"/>
<path class="st13" d="M322.13,277.66c0.02,0.33-0.15,0.59-0.46,1.08c-0.01-0.6-0.13-0.97,0.2-1.32
	C321.97,277.5,322.05,277.58,322.13,277.66z"/>
<path class="st12" d="M230.81,281.52c0-0.56,0-1.12,0-1.67C231.13,280.4,231.13,280.96,230.81,281.52z"/>
<path class="st12" d="M338.26,93.36c0-0.59-0.06-1.18,0.18-1.74C338.4,92.2,338.65,92.81,338.26,93.36z"/>
<path class="st12" d="M220.7,115.25c0.59-0.01,1.18-0.06,1.75,0.17C221.87,115.38,221.25,115.62,220.7,115.25z"/>
<path class="st12" d="M225.42,115.42c0.57-0.24,1.16-0.18,1.75-0.18C226.62,115.63,226.01,115.38,225.42,115.42z"/>
<path class="st12" d="M310.64,115.24c0.59-0.02,1.19-0.07,1.75,0.17C311.81,115.38,311.2,115.63,310.64,115.24z"/>
<path class="st12" d="M246.41,194.66c-0.59,0.24-1.18,0.23-1.78,0C245.22,194.66,245.82,194.66,246.41,194.66z"/>
<path class="st12" d="M314.26,168.17c0.24,0.56,0.18,1.16,0.18,1.75C314.05,169.37,314.3,168.75,314.26,168.17z"/>
<path class="st12" d="M295.96,286.8c0,0.56-0.1,1.12,0.02,1.67C295.62,287.92,295.66,287.37,295.96,286.8z"/>
<path class="st12" d="M314.44,162.72c0.01,0.59,0.06,1.18-0.18,1.75C314.3,163.89,314.04,163.27,314.44,162.72z"/>
<path class="st12" d="M300.84,277.68c0-0.48,0-0.96,0.01-1.43C301.17,276.72,301.17,277.2,300.84,277.68z"/>
<path class="st12" d="M315.12,115.41c0.49-0.22,1-0.18,1.52-0.17C316.17,115.66,315.62,115.36,315.12,115.41z"/>
<path class="st12" d="M178.89,115.41c0.49-0.22,1-0.18,1.51-0.17C179.94,115.66,179.39,115.36,178.89,115.41z"/>
<path class="st12" d="M186.12,269.52c0.03,0.51,0.08,1.03-0.18,1.51C186.01,270.53,185.7,269.98,186.12,269.52z"/>
<path class="st12" d="M174.65,115.25c0.51-0.02,1.03-0.05,1.51,0.17C175.66,115.36,175.12,115.66,174.65,115.25z"/>
<path class="st12" d="M152.85,92.07c0.24,0.49,0.19,1.01,0.18,1.53C152.6,93.13,152.91,92.58,152.85,92.07z"/>
<path class="st12" d="M219.5,138.76c0.52-0.02,1.04-0.1,1.52,0.17C220.52,138.88,219.97,139.18,219.5,138.76z"/>
<path class="st12" d="M298.44,276.89c0.35,0.52,0.25,1.05-0.01,1.57C298.43,277.93,298.43,277.41,298.44,276.89z"/>
<path class="st12" d="M202.21,88.63c-0.22-0.48-0.19-0.99-0.17-1.5C202.45,87.58,202.15,88.13,202.21,88.63z"/>
<path class="st12" d="M405.38,138.76c0.52-0.03,1.04-0.1,1.52,0.17C406.4,138.88,405.85,139.18,405.38,138.76z"/>
<path class="st12" d="M217.34,276.28c0.52-0.02,1.05-0.1,1.54,0.17C218.37,276.4,217.82,276.7,217.34,276.28z"/>
<path class="st12" d="M202.03,93.6c-0.01-0.52-0.06-1.04,0.18-1.53C202.15,92.58,202.46,93.13,202.03,93.6z"/>
<path class="st12" d="M153.02,87.12c0.02,0.51,0.05,1.02-0.17,1.5C152.91,88.13,152.6,87.58,153.02,87.12z"/>
<path class="st12" d="M225.54,279.84c-0.05-0.41,0.17-0.89-0.33-1.18C225.84,278.86,225.88,279.02,225.54,279.84z"/>
<path class="st12" d="M432.11,194.67c-0.53,0.23-1.07,0.21-1.6-0.01C431.04,194.66,431.57,194.67,432.11,194.67z"/>
<path class="st12" d="M287.61,136.76c-0.51,0.02-1.03,0.06-1.52-0.17C286.6,136.64,287.15,136.34,287.61,136.76z"/>
<path class="st12" d="M166.69,286.56c0,0.48-0.01,0.95-0.01,1.43C166.37,287.52,166.36,287.04,166.69,286.56z"/>
<path class="st12" d="M286.92,267.55c0.34,0.5,0.31,1-0.02,1.49C286.9,268.54,286.91,268.05,286.92,267.55z"/>
<path class="st12" d="M287.54,196.05c0.49-0.23,1-0.2,1.52-0.18C288.59,196.31,288.04,195.99,287.54,196.05z"/>
<path class="st12" d="M160.02,289.22c0.48,0,0.96,0,1.44,0C160.86,289.53,160.62,289.53,160.02,289.22z"/>
<path class="st12" d="M347.76,197.74c0.39-0.23,0.83-0.2,1.26-0.18C348.64,197.95,348.18,197.69,347.76,197.74z"/>
<path class="st12" d="M410.17,136.76c-0.44,0.02-0.88,0.06-1.29-0.17C409.32,136.62,409.79,136.37,410.17,136.76z"/>
<path class="st12" d="M231.66,251.26c0.4-0.22,0.83-0.2,1.27-0.18C232.56,251.48,232.09,251.21,231.66,251.26z"/>
<path class="st12" d="M342.14,134.9c-0.4,0.23-0.84,0.19-1.27,0.18C341.24,134.69,341.71,134.95,342.14,134.9z"/>
<path class="st12" d="M161.21,274.52c-0.4,0-0.79,0-1.19-0.01C160.42,274.21,160.82,274.2,161.21,274.52z"/>
<path class="st12" d="M291.69,162.44c-0.43,0.02-0.87,0.05-1.27-0.18C290.85,162.31,291.31,162.05,291.69,162.44z"/>
<path class="st12" d="M289.25,86.88c0.01,0.44,0.06,0.89-0.17,1.3C289.12,87.75,288.87,87.27,289.25,86.88z"/>
<path class="st12" d="M223.06,281.76c0.02,0.44,0.05,0.88-0.17,1.28C222.92,282.62,222.67,282.15,223.06,281.76z"/>
<path class="st12" d="M407.13,173.3c-0.39,0.25-0.83,0.2-1.26,0.17C406.24,173.1,406.7,173.34,407.13,173.3z"/>
<path class="st12" d="M220.9,241.92c0,0.4,0,0.8,0,1.19C220.59,242.72,220.58,242.32,220.9,241.92z"/>
<path class="st12" d="M224.29,136.76c-0.44,0.02-0.88,0.06-1.28-0.17C223.44,136.62,223.91,136.38,224.29,136.76z"/>
<path class="st12" d="M375.38,162.78c-0.24-0.39-0.2-0.82-0.19-1.25C375.59,161.89,375.33,162.36,375.38,162.78z"/>
<path class="st12" d="M311.6,274.51c-0.4,0-0.79,0.01-1.19,0.01C310.8,274.2,311.2,274.22,311.6,274.51z"/>
<path class="st12" d="M132.94,193.69c-0.37,0.27-0.8,0.22-1.22,0.19C132.07,193.48,132.53,193.76,132.94,193.69z"/>
<path class="st12" d="M224.84,113.54c-0.45,0.18-0.9,0.17-1.35,0C223.94,113.54,224.39,113.54,224.84,113.54z"/>
<path class="st12" d="M309.66,285.83c0.07-0.19,0.18-0.34,0.45-0.46c0.12,0.38,0.05,0.69-0.17,0.98
	C309.92,286.13,309.94,285.9,309.66,285.83z"/>
<path class="st12" d="M274.92,267.8c0.29,0.43,0.27,0.87,0.01,1.3C274.92,268.67,274.92,268.24,274.92,267.8z"/>
<path class="st12" d="M375.19,171.12c-0.02-0.43-0.05-0.86,0.19-1.25C375.33,170.28,375.59,170.75,375.19,171.12z"/>
<path class="st12" d="M289.08,92.31c0.22,0.41,0.18,0.85,0.17,1.28C288.87,93.21,289.12,92.74,289.08,92.31z"/>
<path class="st12" d="M221.25,173.3c-0.4,0.25-0.84,0.2-1.27,0.17C220.36,173.1,220.83,173.34,221.25,173.3z"/>
<path class="st12" d="M307.98,177.18c-0.22-0.4-0.2-0.83-0.18-1.26C308.19,176.29,307.93,176.76,307.98,177.18z"/>
<path class="st12" d="M218.78,289.23c0.4,0,0.8,0,1.19,0C219.58,289.55,219.18,289.56,218.78,289.23z"/>
<path class="st12" d="M310.65,289.26c0.4-0.01,0.79-0.02,1.19-0.02C311.45,289.57,311.05,289.54,310.65,289.26z"/>
<path class="st14" d="M297.18,90.98c0.02-5.19,0.65-9.47,2.41-13.53c1.38-3.17,3.32-5.91,6.17-7.93c5.3-3.76,12.1-3.42,17.03,0.82
	c3.26,2.81,5.19,6.43,6.31,10.51c1.16,4.24,1.44,8.56,1.04,12.94c-0.31,3.4-1.03,6.69-2.46,9.81c-1.3,2.84-3.09,5.3-5.61,7.2
	c-6.08,4.57-14.24,3.52-19.28-2.47c-2.55-3.03-4.02-6.57-4.84-10.41C297.4,95.36,297.14,92.78,297.18,90.98z"/>
<path class="st14" d="M194.09,90.3c-0.02,4.64-0.69,9.14-2.67,13.39c-1.33,2.87-3.17,5.35-5.75,7.23
	c-5.94,4.35-13.87,3.37-18.86-2.32c-2.59-2.95-4.14-6.41-4.97-10.21c-1.35-6.16-1.24-12.29,0.57-18.35c1.11-3.7,2.96-6.96,5.89-9.55
	c5.4-4.77,13.02-4.77,18.43-0.01c3.16,2.79,5.02,6.35,6.14,10.34C193.74,83.93,194.1,87.09,194.09,90.3z"/>
<path class="st14" d="M270.64,138.71c0.74,0,1.42,0,2.09,0c3.32,0,6.63-0.02,9.95,0.02c2.14,0.02,4.2,0.48,6.1,1.48
	c2.94,1.55,4.72,3.96,5.34,7.24c0.42,2.21,0.28,4.38-0.38,6.51c-1.4,4.52-5,7.02-9.65,7.56c-1.31,0.15-2.63,0.11-3.95,0.11
	c-0.44,0-0.87,0-1.28,0c-0.22,0.8-0.22,0.8-0.07,1.76c1.01,0,2.04,0.01,3.07,0c2-0.01,3.98,0.02,5.94,0.52
	c6.29,1.59,10.65,6.77,11.14,13.27c0.21,2.75-0.04,5.43-1.06,8c-1.81,4.57-5.32,7.14-10,8.24c-1.48,0.35-2.98,0.52-4.51,0.52
	c-4.08-0.01-8.15,0-12.23,0c-0.15,0-0.3,0-0.51,0C270.64,175.53,270.64,157.19,270.64,138.71z"/>
<path class="st14" d="M323.26,166.2c-0.02-5.19,0.73-10.34,2.75-15.25c1.58-3.83,3.84-7.19,7.11-9.77
	c8.19-6.49,19.61-5.28,26.4,2.75c3.06,3.62,4.95,7.81,5.94,12.39c1.63,7.51,1.52,14.99-0.64,22.4c-1.07,3.68-2.77,7.05-5.29,9.97
	c-3.4,3.95-7.65,6.4-12.87,6.87c-6.1,0.54-11.3-1.52-15.56-5.91c-3.37-3.47-5.35-7.69-6.57-12.32
	C323.6,173.71,323.25,170.02,323.26,166.2z"/>
<path class="st14" d="M123.91,86c-0.13,0.61-0.1,1.09-0.05,1.54c0.27,0.31,0.61,0.2,0.91,0.2c1.72,0.03,3.44-0.08,5.15,0.09
	c3.54,0.36,6.53,1.74,8.58,4.78c0.93,1.38,1.48,2.91,1.71,4.55c0.4,2.85,0.25,5.67-0.92,8.34c-1.48,3.37-4.15,5.26-7.66,6.07
	c-1.06,0.24-2.13,0.32-3.21,0.33c-2.88,0.02-5.75,0.01-8.63,0c-0.15,0-0.3-0.02-0.51-0.04c0-14.41,0-28.79,0-43.11
	c0.16-0.2,0.34-0.14,0.49-0.14c2.92,0,5.83,0,8.75,0c0.85,0,1.67,0.13,2.48,0.37c2.82,0.83,4.39,2.81,4.94,5.61
	c0.42,2.14,0.36,4.3-0.31,6.4c-0.95,2.97-3.14,4.72-6.24,4.92c-1.35,0.09-2.72,0.06-4.07,0.08C124.87,86.01,124.44,86,123.91,86z"/>
<path class="st14" d="M145.52,175.17c3.67-10.02,7.3-19.95,11-30.06c3.7,10.12,7.34,20.05,11,30.06
	C160.17,175.17,152.91,175.17,145.52,175.17z"/>
<path class="st14" d="M230.74,237.1c1.38-0.04,2.64,0.27,3.78,0.99c3.33,2.08,3.34,6.99-0.05,8.97c-2.45,1.43-5.06,1.42-7.51,0
	c-3.49-2.02-3.38-7.1,0.13-9.09C228.24,237.31,229.47,237.04,230.74,237.1z"/>
<path class="st14" d="M187.61,276.87c0.4-2.39,0.78-4.71,1.17-7.03c0.05-0.31,0.15-0.62,0.25-0.92c0.23-0.73,0.75-1.08,1.49-1.2
	c2.06-0.34,4.05,0.99,4.5,3.04c0.72,3.32-1.15,5.89-4.54,6.24C189.56,277.1,188.65,277.11,187.61,276.87z"/>
<path class="st14" d="M154.45,285.16c0.25-2.8,1.37-5.42,3.35-7.67c0.37-0.42,0.82-0.76,1.33-0.99c0.63-0.28,1.25-0.32,1.77,0.21
	c0.5,0.51,0.91,1,0.64,1.88c-0.65,2.14-1.47,4.19-2.75,6.04c-0.59,0.86-1.27,1.63-2.12,2.25c-0.5,0.36-1.06,0.66-1.66,0.32
	c-0.56-0.31-0.55-0.92-0.56-1.49C154.45,285.59,154.45,285.47,154.45,285.16z"/>
<path class="st14" d="M304.89,285.18c0.28-2.79,1.37-5.51,3.47-7.79c0.41-0.44,0.88-0.79,1.48-0.98c1.22-0.39,2.54,0.72,2.21,1.96
	c-0.73,2.71-1.82,5.25-3.69,7.4c-0.42,0.48-0.89,0.91-1.44,1.24c-1.14,0.68-1.93,0.25-2.01-1.09
	C304.88,285.77,304.89,285.61,304.89,285.18z"/>
<path class="st14" d="M203.19,284.23c0.08-2.17,0.49-4.27,1.49-6.22c0.38-0.75,0.84-1.45,1.59-1.91c1.15-0.71,2.18-0.38,2.72,0.86
	c0.24,0.56,0.36,1.15,0.38,1.74c0.11,2.3-0.27,4.53-1.2,6.65c-0.34,0.77-0.77,1.49-1.43,2.04c-1.37,1.14-2.82,0.68-3.32-1.02
	C203.22,285.67,203.17,284.96,203.19,284.23z"/>
<path class="st15" d="M235.28,281.15c0.55-1.59,1.2-2.89,2.2-4c0.48-0.54,1.03-1.01,1.77-1.14c0.75-0.14,1.14,0.17,1.19,0.94
	c0.06,1-0.41,1.77-1.14,2.38C238.18,280.25,236.89,280.79,235.28,281.15z"/>
</svg>
