<?xml version="1.0" encoding="utf-8"?>
<!-- Generator: Adobe Illustrator 25.4.1, SVG Export Plug-In . SVG Version: 6.00 Build 0)  -->
<svg version="1.1" id="Layer_1_xA0_Image_00000096018505413504216390000012599640831779935115_"
	 xmlns="http://www.w3.org/2000/svg" xmlns:xlink="http://www.w3.org/1999/xlink" x="0px" y="0px" viewBox="0 0 386.4 349.92"
	 style="enable-background:new 0 0 386.4 349.92;" xml:space="preserve">
<style type="text/css">
	.st0{fill:#0A0A0A;}
	.st1{fill:#FFFFFF;}
	.st2{fill:#D4D5D7;}
	.st3{fill:#646567;}
	.st4{fill:#575759;}
	.st5{fill:#565759;}
	.st6{fill:#57575A;}
	.st7{fill:#E1E2E3;}
	.st8{fill:#707274;}
	.st9{fill:#B6B8BA;}
	.st10{fill:#0A0A0B;}
</style>
<g>
	<path class="st0" d="M270.48,258.24c0-28.32,0-56.64,0.02-84.95c0-0.72-0.31-1.35-0.27-2.06c0.04-0.72,0.15-1.48-0.03-2.15
		c-0.19-0.74-0.04-1.5-0.23-2.18c-0.34-1.21-0.18-2.5-0.69-3.67c0.11-1.13-0.35-2.18-0.51-3.28c-0.19-1.29-0.55-2.56-0.95-3.8
		c-0.27-0.85-0.49-1.71-0.81-2.54c-0.31-0.79-0.6-1.6-0.85-2.41c-0.42-1.38-0.98-2.71-1.53-4.05c-0.9-2.2-1.9-4.34-3.04-6.42
		c-0.73-1.34-1.51-2.66-2.29-3.97c-0.99-1.65-2.09-3.21-3.15-4.82c-0.56-0.86-1.19-1.67-1.81-2.48c-1.39-1.83-2.94-3.52-4.45-5.26
		c-1.28-1.47-2.71-2.77-4.02-4.2c-0.45-0.49-1.08-0.75-1.53-1.26c-0.43-0.5-0.93-0.92-1.48-1.31c-0.66-0.46-1.21-1.09-1.86-1.6
		c-1.88-1.5-3.83-2.88-5.81-4.24c-1.46-1.01-2.98-1.9-4.48-2.84c-1.63-1.02-3.39-1.85-5.13-2.66c-1.91-0.89-3.87-1.66-5.82-2.46
		c-1.89-0.77-3.84-1.37-5.77-2c-1.45-0.47-2.91-1.03-4.48-1.07c-0.8-0.46-1.78-0.26-2.58-0.72c-0.72,0.16-1.37-0.32-2.06-0.22
		c-0.46,0.06-0.77-0.3-1.22-0.28c-0.4,0.03-0.87,0.2-1.23-0.21c-0.04-0.04-0.15-0.02-0.23-0.01c-1.34,0.11-2.64-0.38-3.98-0.25
		c-1.17,0.12-2.31-0.34-3.5-0.25c-1.19,0.09-2.4,0.01-3.6,0.02c-1.57,0.02-3.12,0.39-4.7,0.24c-0.7,0.33-1.47,0.11-2.17,0.27
		c-0.7,0.17-1.45,0.01-2.05,0.26c-0.66,0.27-1.41-0.05-1.98,0.43c-0.67-0.13-1.29,0.19-1.93,0.29c-0.69,0.1-1.4,0.26-2.09,0.44
		c-0.69,0.18-1.41,0.31-2.07,0.53c-0.66,0.22-1.43,0.17-2,0.67c-0.75-0.1-1.38,0.35-2.07,0.52c-0.7,0.18-1.45,0.38-2.1,0.71
		c-0.63,0.32-1.29,0.59-1.94,0.82c-3.12,1.11-6.02,2.66-8.95,4.17c-1.8,0.93-3.54,1.94-5.2,3.08c-1.06,0.73-2.16,1.4-3.19,2.17
		c-0.91,0.68-1.83,1.36-2.75,2.04c-1.33,0.99-2.47,2.21-3.85,3.16c-0.19,0.13-0.34,0.33-0.51,0.5c-1.58,1.58-3.14,3.2-4.76,4.74
		c-0.98,0.93-1.81,1.98-2.68,2.99c-1.48,1.71-2.88,3.49-4.16,5.35c-0.97,1.42-1.91,2.87-2.82,4.34c-1.63,2.63-3.07,5.36-4.41,8.14
		c-0.67,1.4-1.23,2.85-1.8,4.29c-0.59,1.52-1.12,3.06-1.69,4.58c-0.37,0.97-0.56,2-0.9,2.98c-0.32,0.94-0.59,1.95-0.72,2.93
		c-0.21,1.47-0.84,2.86-0.77,4.37c-0.37,0.53-0.07,1.18-0.28,1.69c-0.24,0.59-0.06,1.17-0.22,1.71c-0.25,0.85-0.04,1.74-0.26,2.53
		c-0.26,0.95-0.19,1.87-0.19,2.79c-0.01,28.2-0.01,56.4-0.01,84.59c0,0.36,0.01,0.72,0,1.08c0,0.12-0.09,0.22-0.24,0.19
		c-1.62,0.18-3.24,0.21-4.86-0.02c-0.11-0.43-0.06-0.88-0.06-1.31c0-27.22,0-54.44,0-81.66c-0.06-0.57,0.14-1.17-0.12-1.73
		c0-0.48,0-0.96,0-1.44c0.25-0.39,0.07-0.83,0.12-1.24c-0.04-6.06,1.22-11.91,2.94-17.67c3.29-11.04,8.73-20.92,16.08-29.76
		c6.54-7.85,14.28-14.28,23.14-19.36c8.23-4.72,17.01-7.94,26.35-9.63c3.23-0.59,6.48-0.89,9.77-0.94c0.59-0.01,1.19,0.15,1.76-0.12
		c0.08,0,0.16,0,0.24,0c1.28,0.28,2.58,0.05,3.87,0.12c11.17-0.2,21.68,2.56,31.78,7.14c7.23,3.28,13.83,7.54,19.84,12.69
		c7.96,6.84,14.46,14.89,19.48,24.13c4.85,8.92,7.97,18.39,9.28,28.46c0.26,2.02,0.26,4.06,0.35,6.09c0.02,0.43-0.13,0.88,0.12,1.28
		c0,0.24,0,0.48,0,0.72c-0.24,0.45-0.12,0.94-0.12,1.41c-0.01,27.12-0.01,54.24-0.01,81.35c0,0.48,0.05,0.96-0.04,1.44
		C273.89,258.48,272.18,258.41,270.48,258.24z"/>
	<path class="st0" d="M184.32,258.24c-0.15,0.03-0.23-0.07-0.24-0.19c-0.01-0.36,0-0.72,0-1.08c0-15.4,0-30.8,0-46.2
		c0-0.39,0-0.79,0-1.22c-3.92,0-7.78,0-11.69,0c-0.16,0.3-0.07,0.67-0.07,1.01c-0.01,9.08,0,18.16,0,27.24c0,0.24,0.01,0.48,0,0.72
		c-0.02,0.58-0.18,0.75-0.77,0.75c-1.16,0.01-2.32,0.01-3.48,0c-0.61-0.01-0.76-0.17-0.78-0.74c-0.01-0.24,0-0.48,0-0.72
		c0-20.56,0-41.12-0.01-61.68c0-1.47,0.03-1.45,1.44-1.42c0.96,0.02,1.92,0,2.88,0.01c0.52,0.01,0.7,0.19,0.72,0.68
		c0.01,0.28,0,0.56,0,0.84c0,9,0,18,0,27c0,0.39,0,0.79,0,1.21c3.93,0,7.79,0,11.76,0c0-0.34,0-0.68,0-1.03c0-15.48,0-30.96,0-46.44
		c0-1.5-0.05-1.48,1.51-1.47c2.8,0.02,5.6,0.05,8.4-0.02c1.11-0.03,2.17,0.21,3.26,0.29c0.73,0.06,1.45,0.42,2.07,0.76
		c0.95,0.52,1.91,1.11,2.7,1.9c1.31,1.31,2.14,2.89,2.73,4.63c0.17,0.5,0.22,0.97,0.22,1.47c0,11.72-0.02,23.44,0.02,35.16
		c0,1.58-0.37,2.99-1.15,4.33c-0.07,0.12-0.06,0.22-0.06,0.38c3.42,0,6.83,0,10.29,0c0-9.87,0-19.74,0-29.66c1.62,0,3.19,0,4.8,0
		c0,21.49,0,42.96,0,64.47c-1.56,0-3.1,0-4.7,0c0.02,0.02-0.01-0.01-0.03-0.04c-0.02-0.03-0.04-0.07-0.04-0.1
		c0-9.83,0-19.67,0-29.54c-3.35,0-6.66,0-10.04,0c0.15,0.31,0.25,0.66,0.45,0.92c0.43,0.56,0.56,1.26,0.66,1.88
		c0.11,0.67,0.32,1.34,0.31,2.05c-0.03,11.4,0.01,22.8-0.05,34.2c-0.01,2.48-0.95,4.71-2.74,6.54c-1.01,1.03-2.1,1.88-3.42,2.47
		c-0.74,0.33-1.47,0.54-2.26,0.63c-0.17,0.02-0.43-0.09-0.43,0.24c-0.24,0-0.48,0-0.72,0c-0.94-0.27-1.89-0.09-2.84-0.12
		C190.11,258.27,187.21,258.5,184.32,258.24z"/>
	<path class="st1" d="M275.76,173.28c-0.04,0-0.1,0.02-0.12,0c-0.05-0.05-0.12-0.13-0.12-0.19c0.18-1.62-0.38-3.21-0.23-4.82
		c0.05-0.53-0.3-0.94-0.28-1.46c0.02-0.44,0.24-0.95-0.21-1.35c-0.06-0.05-0.01-0.23-0.01-0.35c-0.01-0.5,0-0.98-0.21-1.47
		c-0.17-0.4,0.12-0.94-0.27-1.33c0.13-0.63-0.15-1.22-0.24-1.82c-0.19-1.27-0.55-2.49-0.81-3.74c-0.29-1.39-0.79-2.72-1.13-4.1
		c-0.33-1.32-0.87-2.59-1.33-3.88c-0.34-0.94-0.68-1.88-1.05-2.81c-0.26-0.65-0.55-1.29-0.83-1.93c-0.74-1.69-1.49-3.39-2.37-5.01
		c-1.61-2.96-3.31-5.86-5.22-8.65c-1.11-1.63-2.32-3.18-3.43-4.81c-0.5-0.74-1.21-1.33-1.76-2.04c-2.16-2.74-4.69-5.13-7.12-7.61
		c-0.5-0.51-1.13-0.83-1.62-1.34c-0.48-0.5-0.94-1.02-1.57-1.4c-0.61-0.38-1.11-0.97-1.69-1.43c-1.88-1.49-3.81-2.91-5.82-4.22
		c-1.29-0.84-2.56-1.72-3.87-2.54c-0.6-0.37-1.23-0.72-1.85-1.03c-1.56-0.79-3.01-1.77-4.63-2.43c-0.99-0.41-1.93-0.98-2.92-1.34
		c-0.97-0.35-1.86-0.95-2.92-1.06c-1.72-0.9-3.57-1.45-5.4-2.02c-1.32-0.4-2.66-0.74-3.98-1.13c-1.18-0.35-2.45-0.36-3.57-0.93
		c-0.68,0.16-1.28-0.38-1.94-0.23c-0.44,0.1-0.69-0.31-1.11-0.27c-0.32,0.03-0.72,0.18-1-0.17c-0.04-0.05-0.15-0.05-0.22-0.05
		c-0.99,0.14-1.93-0.22-2.9-0.3c-1.05-0.09-2.13,0-3.13-0.23c-1.26-0.29-2.51-0.1-3.75-0.2c-0.08-0.05-0.1-0.11-0.08-0.16
		c0.03-0.05,0.05-0.08,0.08-0.08c26.88,0,53.76,0,80.64,0C275.76,120,275.76,146.64,275.76,173.28z"/>
	<path class="st1" d="M190.8,93.36c-0.03,0.07-0.04,0.18-0.09,0.2c-0.1,0.04-0.23,0.05-0.34,0.04c-1.7-0.17-3.36,0.38-5.06,0.24
		c-0.47-0.04-0.84,0.34-1.34,0.26c-0.39-0.06-0.87-0.21-1.23,0.21c-0.05,0.06-0.23,0-0.35,0.01c-1.44,0.14-2.85,0.4-4.27,0.67
		c-1.26,0.24-2.51,0.54-3.77,0.78c-0.95,0.18-1.9,0.42-2.82,0.72c-1.9,0.61-3.79,1.28-5.68,1.91c-1.12,0.37-2.22,0.81-3.32,1.25
		c-2.58,1.04-5.05,2.3-7.52,3.56c-1.29,0.66-2.51,1.46-3.76,2.21c-0.71,0.42-1.39,0.92-2.1,1.31c-0.93,0.52-1.74,1.18-2.62,1.76
		c-1.37,0.9-2.68,1.89-3.95,2.94c-0.92,0.76-1.84,1.54-2.78,2.27c-1,0.78-1.79,1.78-2.78,2.55c-0.97,0.76-1.88,1.57-2.67,2.49
		c-0.92,1.09-1.95,2.06-2.89,3.12c-1.18,1.33-2.31,2.7-3.39,4.11c-1.64,2.13-3.19,4.33-4.65,6.59c-1.05,1.62-1.93,3.35-2.9,5.03
		c-0.74,1.28-1.42,2.6-2.03,3.96c-0.84,1.85-1.65,3.71-2.38,5.61c-0.51,1.35-1.07,2.68-1.49,4.05c-0.48,1.56-1.02,3.11-1.38,4.71
		c-0.11,0.49-0.28,1.01-0.39,1.5c-0.12,0.5-0.29,1.02-0.35,1.56c-0.05,0.47-0.24,1.01-0.37,1.5c-0.15,0.56-0.19,1.2-0.29,1.81
		c-0.2,1.25-0.5,2.48-0.49,3.76c-0.44,0.73-0.05,1.57-0.27,2.29c-0.26,0.86-0.17,1.7-0.21,2.55c-0.08,0.11-0.16,0.11-0.24,0
		c0-25.84,0-51.68,0-77.52C137.36,93.36,164.08,93.36,190.8,93.36z"/>
	<path class="st2" d="M275.52,258.24c0-27.66,0-55.31,0-82.97c0-0.36-0.01-0.72,0-1.08c0-0.12,0.08-0.22,0.24-0.19
		c0,27.8,0,55.6,0,83.4c0,0.36,0,0.72-0.01,1.08c0,0-0.15,0-0.23,0c-0.08-0.05-0.11-0.11-0.08-0.16
		C275.46,258.27,275.49,258.24,275.52,258.24z"/>
	<path class="st3" d="M110.88,174.96c0,27.76,0,55.52,0,83.28c0.08,0.05,0.11,0.11,0.08,0.16c-0.03,0.05-0.06,0.08-0.08,0.08
		c-0.08,0-0.23,0-0.23,0c-0.01-0.36-0.01-0.72-0.01-1.08c0-27.48,0-54.96,0-82.44C110.72,174.85,110.8,174.85,110.88,174.96z"/>
	<path class="st4" d="M184.32,258.24c3.62,0,7.24,0,10.85,0.01c0.22,0,0.58-0.24,0.67,0.23c-3.84,0-7.68,0-11.52,0
		C184.32,258.4,184.32,258.32,184.32,258.24z"/>
	<ellipse class="st5" cx="273" cy="258.36" rx="3.56" ry="0.17"/>
	<ellipse class="st6" cx="113.28" cy="258.36" rx="3.39" ry="0.17"/>
	<path class="st7" d="M195.12,93.36c0,0.08,0,0.16,0,0.24c-1.22,0-2.44,0-3.66,0c-0.17,0-0.42,0.09-0.42-0.24
		C192.4,93.36,193.76,93.36,195.12,93.36z"/>
	<path class="st8" d="M110.88,174.96c-0.08,0-0.16,0-0.24,0c0-0.48,0-0.96,0-1.44c0.22-0.02,0.24,0.13,0.24,0.29
		C110.88,174.19,110.88,174.58,110.88,174.96z"/>
	<path class="st9" d="M110.64,170.88c0.08,0,0.16,0,0.24,0c0,0.3,0,0.61,0,0.91c0,0.16-0.03,0.3-0.24,0.29
		C110.64,171.68,110.64,171.28,110.64,170.88z"/>
	<path class="st10" d="M144,239.25c-1.7,0-3.32,0-5.04,0c0-0.39,0-0.78,0-1.17c0-20.96,0-41.92,0-62.88c0-1.13,0.41-2.24,0.24-3.38
		c0.36-0.44,0.09-1.02,0.27-1.45c0.2-0.46,0.1-0.92,0.22-1.35c0.41-1.48,0.67-2.99,1.1-4.46c0.2-0.68,0.35-1.38,0.59-2.04
		c0.23-0.62,0.43-1.26,0.66-1.88c0.48-1.32,1.03-2.61,1.58-3.91c0.61-1.44,1.39-2.78,2.08-4.18c0.46-0.94,1.13-1.77,1.65-2.68
		c0.92-1.61,2.16-3.01,3.16-4.57c0.31-0.48,0.74-0.88,1.11-1.34c1.56-1.96,3.31-3.75,5.18-5.4c1.92-1.69,3.84-3.41,6.08-4.69
		c0.75-0.84,1.81-1.24,2.72-1.86c0.88-0.6,1.89-1.03,2.82-1.57c1.19-0.7,2.47-1.21,3.7-1.8c1.63-0.79,3.35-1.37,5.08-1.93
		c1.53-0.5,3.09-0.86,4.66-1.21c0.89-0.2,1.76-0.49,2.68-0.47c0.5-0.51,1.18-0.08,1.76-0.38c0.56-0.29,1.27,0.03,1.87-0.11
		c1.92-0.45,3.86-0.12,5.78-0.22c0.8-0.04,1.6,0.02,2.4-0.02c0.67-0.03,1.3,0.13,1.94,0.24c0.6,0.11,1.23-0.12,1.83,0.22
		c0.27,0.15,0.71,0.06,1.06,0.02c0.34-0.04,0.52,0.37,0.86,0.25c0.53-0.18,0.96,0.25,1.46,0.24c0.47-0.01,0.9,0.2,1.33,0.3
		c0.45,0.11,1.01,0,1.39,0.38c1.23,0.15,2.38,0.62,3.54,1.01c1.44,0.48,2.85,1.02,4.24,1.64c1.18,0.53,2.35,1.08,3.51,1.66
		c1.85,0.91,3.57,2.04,5.29,3.16c0.98,0.64,1.96,1.27,2.91,1.96c0.46,0.34,0.89,0.74,1.34,1.11c2.46,2.02,4.68,4.31,6.85,6.62
		c1.11,1.19,2.02,2.59,3.04,3.87c1.32,1.68,2.31,3.55,3.49,5.3c0.59,0.87,1.02,1.89,1.45,2.87c0.41,0.95,1.12,1.77,1.23,2.85
		c0.75,1.17,1.06,2.52,1.55,3.79c0.34,0.89,0.6,1.84,0.84,2.77c0.22,0.83,0.38,1.68,0.66,2.49c0.15,0.44-0.19,0.97,0.3,1.31
		c-0.17,0.68,0.35,1.27,0.24,1.94c-0.08,0.47,0.36,0.83,0.26,1.34c-0.08,0.44-0.13,0.93,0.21,1.34c0.04,0.05,0.01,0.16,0,0.24
		c-0.13,1.9,0.27,3.76,0.26,5.66c-0.04,19.72-0.02,39.44-0.02,59.16c0,0.39,0,0.78,0,1.19c-1.78,0-3.49,0-5.28,0
		c0-0.4,0-0.79,0-1.18c0-21.04,0-42.08,0.01-63.11c0-0.59-0.09-1.14-0.24-1.7c-0.14-0.51,0.03-1.04-0.2-1.6
		c-0.19-0.49-0.25-1.13-0.26-1.68c-0.01-0.98-0.56-1.83-0.51-2.8c-0.48-0.66-0.37-1.5-0.68-2.24c-0.3-0.7-0.5-1.47-0.75-2.21
		c-0.45-1.3-0.96-2.56-1.52-3.81c-0.26-0.57-0.47-1.17-0.77-1.72c-1.17-2.09-2.34-4.17-3.72-6.14c-1.17-1.68-2.45-3.25-3.79-4.8
		c-0.99-1.14-2.02-2.23-3.11-3.25c-1.57-1.47-3.28-2.8-4.99-4.13c-1.68-1.31-3.48-2.43-5.31-3.47c-1.85-1.05-3.79-2-5.82-2.73
		c-1.43-0.51-2.85-1.04-4.3-1.48c-0.78-0.24-1.58-0.44-2.37-0.64c-0.73-0.18-1.46-0.42-2.2-0.46c-0.78-0.04-1.54-0.2-2.29-0.32
		c-0.86-0.14-1.72-0.02-2.55-0.2c-1.96-0.43-3.94-0.16-5.91-0.2c-1.12-0.03-2.24,0.36-3.38,0.22c-0.61,0.55-1.48-0.08-2.09,0.47
		c-0.71-0.13-1.37,0.2-2.05,0.31c-0.65,0.1-1.36,0.14-1.96,0.44c-0.61,0.31-1.28,0.43-1.92,0.58c-1.6,0.37-3.04,1.21-4.64,1.57
		c-1.41,0.98-3.22,1.21-4.54,2.37c-1.88,0.79-3.47,2.07-5.18,3.14c-0.49,0.31-0.9,0.7-1.36,1.03c-2.51,1.81-4.6,4.08-6.77,6.26
		c-1.83,1.84-3.38,3.91-4.81,6.05c-1.3,1.94-2.53,3.96-3.5,6.11c-0.56,1.24-1.08,2.51-1.6,3.78c-0.45,1.1-0.85,2.22-1.15,3.36
		c-0.37,1.41-0.76,2.82-1.04,4.26c-0.22,1.14-0.22,2.34-0.67,3.43c-0.01,0.03-0.01,0.08,0,0.12c0.17,1.18-0.24,2.33-0.24,3.5
		c0,20.56,0,41.12,0,61.68C144,238.45,144,238.84,144,239.25z"/>
	<path class="st1" d="M189.14,253.44c0-14.67,0-29.25,0-43.92c0.4,0,0.79,0,1.18,0c1.68,0,3.36,0.02,5.04,0
		c1.38-0.02,2.5,0.49,3.5,1.43c0.67,0.62,1.03,1.4,1.44,2.17c0.13,0.24,0.1,0.45,0.1,0.68c0.02,0.56,0.01,1.12,0.01,1.68
		c0,11.07-0.01,22.15,0.01,33.22c0,1.19-0.48,2.14-1.24,2.96c-0.36,0.39-0.72,0.8-1.22,1.09c-0.85,0.49-1.71,0.75-2.71,0.72
		C193.24,253.4,191.24,253.44,189.14,253.44z"/>
	<path class="st1" d="M189.16,204.48c0-14.71,0-29.29,0-43.92c2.23,0,4.42-0.01,6.61,0.01c0.53,0,1.02,0.22,1.48,0.47
		c1.2,0.65,2.26,1.95,2.68,3.22c0.16,0.48,0.23,0.96,0.23,1.46c-0.01,11.19,0,22.39-0.01,33.58c0,2.36-1.62,4.49-3.92,5.13
		c-0.15,0.04-0.31,0.04-0.46,0.04C193.59,204.48,191.39,204.48,189.16,204.48z"/>
</g>
</svg>
