<?xml version="1.0" encoding="utf-8"?>
<!-- Generator: Adobe Illustrator 25.4.1, SVG Export Plug-In . SVG Version: 6.00 Build 0)  -->
<svg version="1.1" id="Layer_1_xA0_Image_00000108990890510671220810000006015089762678736037_"
	 xmlns="http://www.w3.org/2000/svg" xmlns:xlink="http://www.w3.org/1999/xlink" x="0px" y="0px" viewBox="0 0 907.68 349.92"
	 style="enable-background:new 0 0 907.68 349.92;" xml:space="preserve">
<style type="text/css">
	.st0{fill:#0B0B0B;}
	.st1{fill:#0B0A0B;}
	.st2{fill:#FFFFFF;}
	.st3{fill:#646567;}
	.st4{fill:#E2E3E4;}
	.st5{fill:#888A8C;}
	.st6{fill:#E4E5E6;}
	.st7{fill:#0B0B0C;}
	.st8{fill:#8D8F92;}
	.st9{fill:#FEFEFE;}
</style>
<path class="st0" d="M757.66,190.32c-4.73,5.25-12.62,5.6-18.47,0.83c-1.59-1.3-2.93-2.83-4.17-4.46c-2.9-3.82-5.63-7.77-8.77-11.39
	c-1.31-1.51-2.63-3.02-4.84-3.25c-0.76-0.08-0.32-0.77-0.38-1.18c-0.09-0.58,0.39-0.47,0.73-0.48c1.88-0.05,3.76,0.1,5.63-0.12
	c6.5-0.74,10.53-4.42,12.3-10.59c1.42-4.98,1.3-9.98-0.77-14.78c-2.28-5.29-6.46-8.13-12.17-8.5c-3.31-0.21-6.64-0.03-9.95-0.08
	c-0.91-0.02-0.69,0.54-0.69,1.01c-0.01,6.36,0,12.71,0,19.07c0,10.91,0.01,21.83-0.02,32.74c0,0.93,0.22,1.22,1.17,1.18
	c1.72-0.08,3.44,0.02,5.16-0.04c0.89-0.03,0.73,0.51,0.7,0.99c-0.03,0.48,0.31,1.15-0.7,1.14c-6.84-0.03-13.68-0.03-20.52,0
	c-0.91,0-0.81-0.51-0.8-1.08c0.01-0.55-0.15-1.15,0.79-1.06c0.79,0.08,1.6,0.03,2.4,0.01c2.27-0.04,3.83-1.55,3.89-3.83
	c0.04-1.6,0.01-3.2,0.01-4.8c0-13.59,0-27.19,0-40.78c0-3.16-1.37-4.54-4.51-4.55c-0.8,0-1.6-0.03-2.4-0.04
	c-0.05-0.1-0.12-0.2-0.13-0.33c-0.1-1.66-0.1-1.66,1.52-1.66c8.34,0,16.67,0,25.01,0c0.56,0,1.13,0,1.69,0
	c4.62-0.13,8.85,1.09,12.65,3.72c4.68,3.25,7.07,7.83,7.54,13.43c0.36,4.3-0.49,8.34-2.94,11.98c-2.97,4.42-7.27,6.85-12.3,8.14
	c-1.86,0.48-3.76,0.74-5.4,0.75c3.79,0.4,6.98,2.26,9.4,5.63c2.47,3.43,4.91,6.9,7.72,10.09c2.67,3.03,6.13,3.55,9.59,1.47
	c1.3-0.78,1.38-0.76,2.04,0.57C757.66,190.16,757.66,190.24,757.66,190.32z"/>
<path class="st1" d="M164.67,134.18c1.29,0.53,2.69,0.41,4.03,0.7c2.67,0.58,5.25,1.38,7.53,2.92c6.58,4.46,6.59,13.47,0.01,17.93
	c-2.07,1.4-4.36,2.3-6.78,2.92c-0.41,0.1-0.81,0.22-1.38,0.38c0.61,0.55,1.22,0.47,1.76,0.54c2.76,0.35,5.36,1.17,7.84,2.42
	c10.43,5.24,10.15,19.49,2.32,25.46c-4.1,3.12-8.81,4.47-13.82,4.75c-8.03,0.46-16.07,0.1-24.11,0.19c-2.6,0.03-5.2,0.02-7.8,0.03
	c-0.38-0.71-0.2-1.44-0.1-2.17c0.44-0.36,0.97-0.3,1.49-0.32c0.6-0.02,1.2,0.02,1.8-0.03c2.02-0.18,3.21-1.41,3.3-3.42
	c0.02-0.4,0.01-0.8,0.01-1.2c0-14.65,0-29.31,0-43.96c0-0.28,0-0.56,0-0.84c-0.05-2.5-1.26-3.69-3.79-3.8
	c-0.94-0.04-1.92,0.23-2.81-0.32c-0.14-0.68-0.22-1.36,0.04-2.04c2.15-0.11,4.3-0.04,6.45-0.05c6.85-0.01,13.7,0,20.55-0.01
	c0.43,0,0.88,0.12,1.29-0.12C163.23,134.18,163.95,134.18,164.67,134.18z"/>
<path class="st2" d="M757.66,190.08c-0.66-1.08-1.29-0.68-2.16-0.14c-3.02,1.87-6.14,1.54-8.82-0.8c-1.12-0.98-2.03-2.14-2.92-3.33
	c-2.03-2.72-4.1-5.41-6.08-8.16c-2.26-3.13-5.4-4.61-9.12-5.08c-0.38-0.05-0.79,0.06-1.26-0.4c1.28-0.11,2.43-0.18,3.57-0.31
	c5.35-0.62,10.08-2.54,13.89-6.51c7.48-7.78,6.58-24.98-8.21-29.69c-2.25-0.72-4.55-1.2-6.93-1.26c-0.1-0.03-0.13-0.07-0.11-0.13
	c0.02-0.05,0.05-0.08,0.08-0.08c9.04,0,18.08,0.01,27.12-0.02c0.82,0,0.98,0.16,0.98,0.98
	C757.65,153.46,757.66,171.77,757.66,190.08z"/>
<path class="st2" d="M134.23,136.33c1.04,0,2.08,0,3.12,0.02c2.31,0.05,3.84,1.55,3.85,3.84c0.01,15.43,0.01,30.86,0,46.29
	c0,2.28-1.55,3.79-3.86,3.82c-1.04,0.02-2.08,0.02-3.12,0.03c-0.09,0.11-0.18,0.1-0.26-0.01c0-17.99,0-35.99,0-53.98
	C134.04,136.21,134.13,136.21,134.23,136.33z"/>
<path class="st3" d="M727.93,134.38c-7.92,0.01-15.84,0.03-23.75,0.04c-0.32,0-0.64,0-0.96,0c-1.91,0-1.91,0-1.93,1.87
	c-0.55-0.65-0.05-1.42-0.26-2.11c8.96,0,17.92,0,26.88,0c0.07,0.04,0.09,0.08,0.08,0.12C727.96,134.35,727.95,134.38,727.93,134.38z
	"/>
<path class="st3" d="M162.51,134.18c-0.39,0.44-0.9,0.23-1.35,0.23c-8.98,0.02-17.95,0.02-26.93,0.02
	c-0.14-0.06-0.16-0.15-0.04-0.25C143.64,134.18,153.07,134.18,162.51,134.18z"/>
<path class="st4" d="M134.2,134.18c0.01,0.08,0.03,0.17,0.04,0.25c0,0.63-0.01,1.26-0.01,1.89c-0.09,0-0.18,0.01-0.27,0.01
	C134.11,135.63,133.65,134.85,134.2,134.18z"/>
<path class="st4" d="M133.96,190.32c0.09,0,0.17,0.01,0.26,0.01c0.02,0.7,0.05,1.4,0.07,2.11c-0.11,0.01-0.22,0.03-0.33,0.04
	C133.96,191.76,133.96,191.04,133.96,190.32z"/>
<path class="st5" d="M727.93,134.38c-0.01-0.07-0.02-0.13-0.03-0.2c0.56,0,1.12,0,1.68,0c0,0.07,0.01,0.14,0.03,0.21
	C729.05,134.39,728.49,134.38,727.93,134.38z"/>
<path class="st6" d="M601.19,264.21c0-0.07,0-0.14,0-0.2c0.4-0.39,0.81-0.39,1.21,0c0,0.07-0.01,0.13,0,0.2
	C601.99,264.21,601.59,264.21,601.19,264.21z"/>
<path class="st0" d="M496.1,164.34c0,6.68,0.02,13.35-0.02,20.03c0,0.87,0.17,1.2,1.11,1.13c1.19-0.09,2.4,0.03,3.6-0.04
	c0.84-0.04,0.77,0.45,0.75,0.99c-0.02,0.53,0.18,1.12-0.76,1.12c-5.76-0.03-11.52-0.03-17.27,0c-0.9,0-0.69-0.58-0.67-1.05
	c0.01-0.44-0.29-1.11,0.64-1.05c0.76,0.05,1.52,0.04,2.28,0c1.72-0.11,2.84-1.22,2.85-2.94c0.03-6.24,0-12.47,0.02-18.71
	c0-0.66-0.25-0.8-0.84-0.79c-7.48,0.02-14.95,0.02-22.43,0c-0.62,0-0.83,0.17-0.83,0.81c0.02,6.96,0.02,13.91,0,20.87
	c0,0.65,0.24,0.81,0.85,0.79c1.28-0.04,2.56,0.04,3.84-0.03c0.87-0.05,0.77,0.47,0.72,0.98c-0.04,0.47,0.34,1.14-0.68,1.13
	c-5.8-0.03-11.6-0.03-17.39,0c-0.95,0-0.6-0.64-0.62-1.07c-0.02-0.45-0.28-1.1,0.65-1.03c0.72,0.06,1.44,0.04,2.16,0.01
	c1.86-0.08,2.96-1.19,2.97-3.04c0.01-12.07,0.01-24.14,0-36.21c0-1.94-1.1-3.03-3.03-3.09c-0.52-0.01-1.05-0.07-1.56,0.01
	c-1.01,0.15-1.3-0.22-1.24-1.22c0.04-0.73,0.2-0.92,0.94-0.92c5.64,0.03,11.28,0.04,16.91-0.01c0.91-0.01,0.94,0.39,0.91,1.06
	c-0.02,0.6,0.14,1.19-0.86,1.1c-1.23-0.1-2.48,0-3.72-0.04c-0.61-0.02-0.84,0.15-0.84,0.8c0.02,5.56,0.02,11.11,0,16.67
	c0,0.67,0.25,0.79,0.85,0.79c7.48-0.02,14.95-0.02,22.43,0c0.6,0,0.83-0.15,0.83-0.8c-0.03-4.84,0.01-9.67-0.02-14.51
	c-0.01-1.73-1.13-2.83-2.84-2.93c-0.56-0.03-1.13-0.08-1.68,0.01c-1.09,0.17-1.36-0.27-1.29-1.3c0.04-0.72,0.29-0.84,0.93-0.83
	c5.64,0.02,11.28,0.03,16.91-0.01c0.92-0.01,0.91,0.43,0.93,1.1c0.02,0.71-0.07,1.12-0.95,1.06c-1.15-0.08-2.32,0.04-3.48-0.04
	c-0.88-0.06-1.04,0.28-1.04,1.08C496.11,150.91,496.1,157.63,496.1,164.34z"/>
<path class="st1" d="M578.16,171.54c0.18,0.46,0.61,0.27,0.92,0.32c2.69,0.39,4.9,1.53,6.51,3.8c1.82,2.58,3.71,5.11,5.61,7.62
	c2.17,2.87,5.73,3.44,8.7,1.44c0.28-0.19,0.55-0.72,0.92-0.06c0.25,0.44,0.67,0.77,0.11,1.32c-1.73,1.7-3.72,2.89-6.17,3.14
	c-4.59,0.48-8.32-1.13-11.07-4.84c-2.31-3.11-4.53-6.28-6.83-9.4c-1.15-1.55-2.35-3.05-4.57-3.1c-0.8-0.02-0.35-0.74-0.43-1.14
	c-0.12-0.55,0.3-0.53,0.67-0.53c1.72,0.01,3.45,0.09,5.14-0.3c5.01-1.13,8.69-5.46,9.36-10.9c0.39-3.16,0.16-6.24-1.31-9.11
	c-2.24-4.38-5.94-6.53-10.82-6.68c-1.88-0.06-3.76,0.04-5.64-0.03c-0.92-0.03-1.21,0.2-1.2,1.17c0.05,6.36,0.02,12.71,0.02,19.07
	c0,7,0.02,13.99-0.02,20.98c-0.01,0.96,0.25,1.24,1.19,1.17c1.11-0.08,2.24,0.03,3.36-0.04c0.76-0.04,0.99,0.22,0.92,0.95
	c-0.06,0.59,0.14,1.17-0.85,1.16c-5.68-0.04-11.36-0.05-17.03,0.01c-1.01,0.01-0.81-0.56-0.85-1.14c-0.05-0.65,0.03-1.07,0.87-0.98
	c0.67,0.08,1.36,0.04,2.04,0.01c1.78-0.1,2.91-1.23,2.91-3c0.01-12.11,0.01-24.22,0-36.33c0-1.84-1.15-2.94-3.01-3.01
	c-0.52-0.02-1.05-0.07-1.56,0.01c-1.13,0.19-1.34-0.33-1.27-1.32c0.04-0.61,0.18-0.82,0.82-0.82c7.64,0.08,15.28-0.2,22.91,0.17
	c3.83,0.19,7.49,1.22,10.67,3.5c4.41,3.16,6.25,7.56,5.89,12.88c-0.38,5.63-3.35,9.51-8.4,11.86c-2.49,1.16-5.15,1.66-7.87,1.93
	C578.58,171.37,578.32,171.26,578.16,171.54z"/>
<path class="st1" d="M630.49,160.76c1.46,0.32,2.92,0.41,4.33,0.77c2.39,0.6,4.59,1.53,6.55,3.07c5.87,4.58,5.75,16.88-2.68,20.74
	c-3.65,1.67-7.49,2.19-11.43,2.21c-7.56,0.04-15.12,0-22.68,0.03c-0.82,0-1.19-0.1-1.21-1.08c-0.02-1.04,0.47-1.03,1.23-1.03
	c4.08,0.01,4.67-0.61,4.67-4.73c0-11.31,0-22.63,0-33.94c0-2.69-0.98-3.66-3.7-3.66c-0.44,0-0.89-0.05-1.32,0.01
	c-0.87,0.11-0.85-0.41-0.85-1.02c0.01-0.64-0.04-1.13,0.9-1.12c8.28,0.1,16.56-0.16,24.83,0.15c2.9,0.11,5.68,0.85,8.13,2.51
	c5.7,3.87,5.3,11.94-0.74,15.25C634.65,159.95,632.59,160.36,630.49,160.76z"/>
<path class="st0" d="M239.47,164.26c0.08,11.95-7.37,21.62-18.86,23.99c-15.57,3.21-29.16-7.46-29.34-23.43
	c-0.09-8.29,2.75-15.27,9.48-20.34c12.53-9.44,34.37-4.9,38.25,14.77C239.33,160.9,239.4,162.58,239.47,164.26z"/>
<path class="st0" d="M673.82,139.77c13.83,0,24.08,10.45,24.08,24.54c0,14.07-10.32,24.56-24.12,24.52
	c-13.84-0.04-24.11-10.5-24.1-24.56C649.69,150.22,659.98,139.77,673.82,139.77z"/>
<path class="st0" d="M372.71,164.33c-0.05,12.03-7.48,21.62-18.96,23.94c-15.31,3.09-28.77-7.17-29.26-22.93
	c-0.26-8.42,2.51-15.58,9.34-20.77c13.09-9.94,35.7-4.57,38.61,16.17C372.6,161.93,372.62,163.14,372.71,164.33z"/>
<path class="st0" d="M415.91,175.8c0-10.81-0.01-21.32,0.02-31.83c0-0.71-0.24-0.87-0.9-0.85c-1.4,0.04-2.8-0.03-4.2,0.03
	c-0.89,0.04-0.72-0.53-0.69-1.01c0.03-0.48-0.3-1.14,0.7-1.13c4.12,0.04,8.24,0.03,12.36,0c0.93-0.01,0.65,0.62,0.63,1.05
	c-0.02,0.41,0.36,1.03-0.59,1.09c-4.4,0.31-5.19,1.2-5.19,5.6c0,12.79,0,25.58-0.02,38.37c0,0.42,0.33,1.09-0.29,1.23
	c-0.65,0.14-1.33,0.19-1.92-0.52c-4.68-5.62-9.41-11.2-14.13-16.78c-6.24-7.39-12.47-14.78-18.72-22.18
	c-0.41,0.26-0.21,0.66-0.21,0.97c-0.01,11.51,0,23.02-0.03,34.54c0,0.89,0.19,1.19,1.12,1.13c1.27-0.09,2.56,0.03,3.84-0.04
	c0.79-0.04,0.97,0.26,0.89,0.96c-0.06,0.56,0.2,1.17-0.83,1.16c-4.04-0.05-8.08-0.05-12.11,0c-0.92,0.01-0.81-0.5-0.8-1.06
	c0.01-0.54-0.17-1.2,0.78-1.04c0.12,0.02,0.24,0,0.36,0c3.1-0.02,4.62-1.49,4.66-4.64c0.05-3.32,0.01-6.64,0.01-9.95
	c0-7.91,0-15.83,0-23.74c0-3.13-0.87-4.01-3.95-4.01c-0.2,0-0.4,0-0.6,0c-1.2,0-1.61-0.61-1.26-1.76c0.12-0.4,0.39-0.34,0.65-0.34
	c3.56-0.01,7.12,0.01,10.68-0.01c0.6,0,0.81,0.44,1.11,0.79c9.24,10.98,18.47,21.96,27.7,32.94
	C415.21,175.04,415.48,175.32,415.91,175.8z"/>
<path class="st0" d="M274.46,148.95c0,1.4,0,2.8,0,4.2c0,0.33,0.12,0.82-0.45,0.76c-0.48-0.05-1.14,0.37-1.38-0.5
	c-0.36-1.31-0.71-2.62-1.18-3.89c-1.43-3.88-3.8-6.85-8.07-7.75c-3.33-0.71-6.47-0.31-9.01,2.22c-2.48,2.48-2.55,6.12-0.24,8.76
	c1.34,1.53,3.02,2.61,4.8,3.53c2.84,1.45,5.72,2.82,8.57,4.25c2.43,1.22,4.75,2.63,6.77,4.48c6.75,6.18,5.56,16.73-2.4,21.25
	c-3.4,1.93-7.13,2.55-10.96,2.57c-4.52,0.03-8.9-0.79-12.99-2.83c-0.32-0.16-0.64-0.33-0.96-0.49c-2.03-0.96-3.24-2.25-2.92-4.8
	c0.29-2.32,0.05-4.71,0.07-7.07c0-0.42-0.34-1.08,0.62-1.08c0.74,0,1.16,0.1,1.28,0.95c0.66,4.4,2.9,7.9,6.39,10.59
	c4.48,3.45,9.42,3.77,14.62,1.94c5.62-1.98,7.36-10.26,2.5-14.28c-1.86-1.54-3.93-2.73-6.09-3.77c-2.8-1.35-5.61-2.67-8.39-4.06
	c-1.68-0.84-3.22-1.91-4.69-3.1c-6.59-5.33-4.97-15.28,1.84-19c4.26-2.33,8.78-2.44,13.4-1.55c2.83,0.55,5.52,1.54,8,3.07
	c0.61,0.38,0.9,0.78,0.87,1.52C274.42,146.23,274.46,147.59,274.46,148.95z"/>
<path class="st0" d="M543.47,187.56c-2.72,0-5.44-0.04-8.16,0.02c-0.9,0.02-0.92-0.4-0.93-1.07c0-0.68,0.02-1.14,0.93-1.05
	c0.91,0.09,1.84,0,2.76,0.03c0.63,0.02,0.87-0.06,0.58-0.79c-1.5-3.69-2.97-7.39-4.43-11.1c-0.17-0.43-0.41-0.59-0.88-0.59
	c-5.48,0.02-10.95,0.02-16.43,0c-0.53,0-0.76,0.19-0.94,0.68c-1.34,3.66-2.69,7.33-4.1,10.97c-0.31,0.81-0.02,0.84,0.63,0.83
	c1.2-0.03,2.4,0.05,3.6-0.03c0.81-0.05,0.96,0.28,0.88,0.96c-0.06,0.54,0.23,1.17-0.8,1.16c-3.88-0.05-7.76-0.05-11.63,0
	c-0.93,0.01-0.89-0.45-0.92-1.1c-0.04-0.74,0.12-1.02,0.96-1.03c4.06-0.02,5.36-0.97,6.76-4.74c4.91-13.26,9.82-26.51,14.73-39.77
	c0.23-0.63,0.34-1.21,1.31-1.22c0.98-0.01,1.36,0.34,1.7,1.2c5.44,13.73,10.92,27.45,16.4,41.18c1.13,2.83,1.94,3.38,4.92,3.38
	c0.4,0,0.8,0,1.2,0c1,0,1.51,0.85,1.1,1.79c-0.2,0.46-0.62,0.27-0.94,0.28C548.99,187.57,546.23,187.56,543.47,187.56z"/>
<path class="st7" d="M304.54,164.34c0,6.68,0.02,13.35-0.02,20.03c0,0.86,0.15,1.21,1.1,1.14c1.19-0.09,2.4,0.02,3.6-0.04
	c0.92-0.05,0.69,0.56,0.67,1.03c-0.02,0.43,0.32,1.08-0.62,1.08c-5.8-0.02-11.6-0.02-17.39,0c-0.88,0-0.68-0.58-0.68-1.06
	c0-0.47-0.22-1.11,0.68-1.04c0.52,0.04,1.04,0.01,1.56,0.01c2.61-0.01,3.59-1,3.6-3.65c0-2.84,0-5.68,0-8.51c0-8.83,0-17.67,0-26.5
	c0-2.74-0.95-3.69-3.66-3.69c-0.96,0-1.92,0-2.88,0c-4.23,0.02-6.82,2.09-7.72,6.22c-0.24,1.09-0.41,2.2-0.5,3.31
	c-0.07,0.85-0.55,0.88-1.21,0.89c-0.79,0.01-0.66-0.5-0.66-0.96c0-3.56,0.02-7.12-0.02-10.67c-0.01-0.78,0.28-0.92,0.97-0.91
	c12.96,0.02,25.91,0.02,38.87,0c0.68,0,0.97,0.09,0.96,0.89c-0.05,3.6-0.02,7.19-0.02,10.79c0,0.42,0.12,0.92-0.61,0.86
	c-0.54-0.04-1.08,0.13-1.19-0.73c-0.18-1.42-0.32-2.85-0.76-4.23c-1.13-3.59-3.5-5.4-7.25-5.45c-1.92-0.03-3.84,0.04-5.76-0.03
	c-0.87-0.03-1.05,0.27-1.04,1.08C304.55,150.91,304.54,157.62,304.54,164.34z"/>
<path class="st0" d="M519.16,244.02c0,0,0.09-0.01,0.13-0.06c3.75-5.37,7.5-10.74,11.24-16.11c0.14-0.2,0.24-0.42,0.37-0.62
	c1.21-1.92,1.67-3.87-0.06-6.04c2.51,0.14,4.69,0.14,6.86,0.01c0.03,0.12,0.1,0.23,0.07,0.26c-1.93,2.42-2.32,5.27-2.29,8.24
	c0.03,4.71,0.01,9.42,0.01,14.16c0.07-0.04,0.18-0.07,0.24-0.15c3.63-5.16,7.25-10.32,10.88-15.49c0.27-0.39,0.53-0.8,0.77-1.21
	c1.1-1.83,2.13-3.67,0.08-5.83c2.34,0.13,4.36,0.12,6.66-0.01c-7.06,10.94-14.89,21.06-22.32,31.79c0-7.7,0-15.12,0-22.77
	c-5.51,7.62-10.92,15.1-16.34,22.59c-0.38-0.25-0.19-0.6-0.19-0.88c0.09-8.27,0.2-16.55,0.29-24.82c0.02-1.98,0.22-4-1.11-5.88
	c2.4,0.06,4.58,0.15,6.83-0.02c-0.04,0.2-0.03,0.34-0.09,0.41c-1.48,1.59-2,3.53-2.01,5.62
	C519.14,232.82,519.16,238.41,519.16,244.02z"/>
<path class="st0" d="M274.64,252.28c-2.22-0.09-4.34-0.05-6.57,0.13c2.73-4.81,2.76-10.14,3.85-15.21c0.64-2.96,1.11-5.96,1.62-8.95
	c0.4-2.35,1.02-4.73-0.92-7.05c2.44,0.12,4.58,0.15,7.01-0.02c-1.67,2.1-2.08,4.41-2.51,6.71c-0.43,2.31-0.86,4.63-1.31,7.07
	c1.26,0,2.45,0,3.64,0c3.84,0,7.68-0.01,11.52,0.01c0.61,0,1.03-0.01,1.15-0.81c0.35-2.41,0.78-4.81,1.23-7.2
	c0.37-1.98,0.41-3.89-1.11-5.74c2.4,0.09,4.56,0.11,6.85-0.01c-2.45,3.7-2.53,7.94-3.35,11.97c-0.86,4.26-1.53,8.56-2.3,12.85
	c-0.39,2.15-0.75,4.28,1.07,6.37c-2.46-0.13-4.61-0.26-6.87,0.08c2.66-4.65,2.7-9.78,3.78-14.65c0.13-0.58,0.11-0.86-0.62-0.86
	c-4.88,0.03-9.76,0.02-14.64,0.01c-0.47,0-0.74,0.11-0.83,0.62c-0.55,3.27-1.16,6.52-1.69,9.79
	C273.36,249.09,273.49,250.74,274.64,252.28z"/>
<path class="st0" d="M407.62,221.16c3.83,0.38,7.35-0.22,10.82,0.29c3.63,0.54,5.77,2.69,6.47,6.12c0.66,3.24-0.66,6.38-3.51,8.3
	c-0.23,0.16-0.49,0.28-0.71,0.45c-0.58,0.45-1.69,0.33-1.8,1.09c-0.09,0.61,0.44,1.33,0.72,1.99c0.87,2.06,1.78,4.09,2.86,6.05
	c1.45,2.62,2.96,5.2,5.37,7.13c-2.18,0.97-4.46,0.34-6.09-1.72c-1.44-1.83-2.39-3.95-3.4-6.03c-0.99-2.04-1.84-4.15-2.56-6.3
	c-0.19-0.55-0.41-0.76-1-0.72c-0.83,0.05-1.71,0.12-2.51-0.06c-1.29-0.29-1.69,0.17-1.84,1.41c-0.3,2.61-0.77,5.21-1.13,7.82
	c-0.25,1.85-0.2,3.67,1.21,5.46c-2.38-0.2-4.5-0.25-6.92,0.05c1.49-2.02,2-4.17,2.34-6.35c1.02-6.42,2.04-12.85,2.96-19.28
	C409.17,224.96,409.26,223,407.62,221.16z"/>
<path class="st0" d="M551.05,251.92c2.62-8.26,4.27-16.68,6.29-25.01c0.17-0.7,0.27-1.41,0.37-2.12c0.26-1.77,0.02-3.42-1.47-4.91
	c2.15,0,4.04,0,5.96,0c-1.37,5.46-2.75,10.95-4.13,16.45c0.56,0.22,0.67-0.3,0.89-0.57c0.87-1.1,1.77-2.18,2.99-2.91
	c1.31-0.77,2.69-1.06,4.09-0.28c1.41,0.79,1.65,2.14,1.57,3.62c-0.1,1.78-0.8,3.41-1.32,5.08c-0.74,2.4-1.54,4.78-2.26,7.18
	c-0.12,0.41-0.55,0.96-0.03,1.31c0.52,0.35,0.97-0.14,1.38-0.43c1.18-0.84,2.02-2.02,3.02-3.13c-0.01,2.47-2.71,5.95-4.96,6.47
	c-1.64,0.38-2.75-0.54-2.65-2.24c0.09-1.61,0.66-3.11,1.13-4.64c0.78-2.55,1.64-5.08,2.36-7.65c0.27-0.95,0.75-2.15-0.34-2.86
	c-1.06-0.68-2.1,0-2.97,0.63c-2.64,1.91-3.91,4.67-4.67,7.72c-0.68,2.75-1.31,5.51-1.92,8.27c-0.13,0.58-0.26,0.84-0.93,0.61
	C552.7,252.25,551.88,252.11,551.05,251.92z"/>
<path class="st0" d="M465.29,234.35c0.5-0.44,0.92-0.82,1.34-1.18c1.27-1.1,1.29-1.09,2.32,0.31c0.95,1.29,1.4,2.78,1.59,4.34
	c0.44,3.74,0.25,7.42-1.34,10.91c-0.58,1.29-1.35,2.45-2.53,3.27c-2.07,1.43-4.52,0.89-5.74-1.29c-0.31-0.55-0.52-1.15-0.83-1.85
	c-0.46,0.69-0.86,1.35-1.31,1.97c-1.28,1.76-3.06,2.27-5.09,1.78c-1.9-0.46-2.9-1.83-3.27-3.72c-0.41-2.1,0.09-4.04,0.92-5.93
	c1.21-2.76,3.03-5.14,4.83-7.69c-1.8-0.34-3.52-0.52-5.25-0.39c-1.94,0.14-2.49,1.42-1.43,3.09c0.25,0.39,0.94,0.69,0.73,1.12
	c-0.32,0.66-0.89,1.22-1.41,1.77c-0.32,0.34-0.59-0.06-0.8-0.24c-1.19-1-1.3-2.33-1.02-3.72c0.5-2.48,2.59-4.3,5.36-4.56
	c2.31-0.21,4.62-0.08,6.98,0.16c0.04,0.53-0.31,0.84-0.51,1.19c-1.65,2.82-3.39,5.6-4.62,8.64c-0.59,1.46-0.95,2.96-0.85,4.55
	c0.07,1.11,0.46,2.05,1.51,2.54c1,0.47,1.99,0.23,2.82-0.42c1.28-1,2.25-2.12,2.23-3.97c-0.03-2.23,0.38-4.44,1.02-6.6
	c0.2-0.67,0.45-0.77,1.08-0.55c1.64,0.58,1.68,0.59,1.39,2.35c-0.3,1.82-0.82,3.57-1.48,5.29c-0.56,1.44-0.09,2.89,1.18,3.7
	c1.19,0.76,2.73,0.5,3.79-0.67c0.94-1.03,1.41-2.3,1.68-3.65c0.45-2.27,0.46-4.52-0.3-6.73
	C467.71,236.6,466.66,235.42,465.29,234.35z"/>
<path class="st0" d="M602.4,264.01c-0.4,0-0.81,0-1.21,0c-1.81-0.3-1.92-0.42-1.64-2.21c0.14-0.9,0.37-1.79,1.03-2.54
	c0.71,1.22,1.45,2.49,3.09,2.21c1.6-0.27,1.83-1.75,2.16-3c0.96-3.64,1.26-7.39,1.84-11.09c0.57-3.63,1.03-7.27,1.6-10.9
	c0.13-0.81,0.08-1.23-0.86-1.07c-0.19,0.03-0.42,0.06-0.6-0.01c-0.41-0.14-1.21,0.39-1.2-0.36c0.01-0.65-0.09-1.61,1.2-1.64
	c1.88-0.05,1.87-0.16,2.3-1.96c0.7-2.97,1.68-5.82,3.57-8.28c2.58-3.33,6.07-4.61,9.56-3.59c1.05,0.3,1.5,0.84,1.47,1.94
	c-0.04,1.54-0.22,3.02-1.1,4.43c-0.37-0.73-0.67-1.41-1.04-2.06c-1.79-3.08-4.92-3.17-6.88-0.18c-1.36,2.07-1.93,4.45-2.46,6.82
	c-0.58,2.61-0.55,2.61,2.07,2.54c0.63-0.02,1.27,0,1.9,0c0.01,0.09,0.04,0.17,0.03,0.24c-0.42,1.96-1.76,2.39-3.53,2.11
	c-0.95-0.15-1.4,0.09-1.58,1.24c-0.89,5.67-1.6,11.38-2.78,17c-0.54,2.54-1.26,5.03-2.62,7.28
	C605.72,262.57,604.39,263.76,602.4,264.01z"/>
<path class="st0" d="M588.06,245.4c-0.59,2.52-1.53,4.46-3.19,6c-0.38,0.35-0.79,0.68-1.24,0.93c-0.9,0.5-1.86,0.84-2.83,0.22
	c-0.93-0.59-0.82-1.58-0.71-2.49c0.12-0.94,0.34-1.86,0.33-2.88c-0.43,0.6-0.85,1.2-1.28,1.8c-0.89,1.23-1.84,2.42-3.12,3.28
	c-2.53,1.72-5.28,0.43-5.58-2.61c-0.15-1.49,0.07-2.95,0.5-4.37c1.32-4.37,3.5-8.2,6.99-11.21c1.29-1.11,2.74-1.95,4.57-1.59
	c0.27,0.05,0.62,0.08,0.78,0.25c1.34,1.5,2.83,0.83,4.49,0.24c-0.72,2.09-1.37,4.02-2.04,5.96c-1.05,3.05-1.91,6.16-2.71,9.28
	c-0.13,0.49-0.48,1.21,0.06,1.55c0.57,0.36,1.12-0.2,1.58-0.56C585.92,248.21,586.86,246.91,588.06,245.4z"/>
<path class="st0" d="M379.64,233.08c-1.33,3.78-2.64,7.44-3.67,11.19c-0.41,1.5-0.79,3.01-1.16,4.52c-0.08,0.33-0.28,0.74,0.1,0.99
	c0.39,0.26,0.77,0.02,1.11-0.19c1.28-0.8,2.18-1.98,3.1-3.14c0.12-0.15,0.25-0.29,0.35-0.42c0.31,0.04,0.25,0.25,0.22,0.37
	c-0.6,2.12-1.64,3.98-3.36,5.4c-0.56,0.46-1.18,0.81-1.9,0.98c-1.53,0.36-2.52-0.4-2.51-1.98c0.01-1.2,0.39-2.35,0.61-3.56
	c-0.55,0.05-0.62,0.51-0.82,0.8c-1,1.45-2.04,2.87-3.44,3.97c-2.66,2.08-5.5,0.95-5.94-2.39c-0.26-1.99,0.28-3.88,0.96-5.73
	c1.44-3.93,3.55-7.41,6.85-10.07c1.24-1,2.63-1.69,4.31-1.32c0.35,0.08,0.8,0.13,0.99,0.37c0.99,1.27,2.13,0.85,3.31,0.41
	C378.99,233.19,379.27,233.16,379.64,233.08z"/>
<path class="st7" d="M313.89,239.98c-0.14,3.94-1.19,7.27-3.57,10.1c-1.18,1.41-2.63,2.46-4.46,2.83c-2.99,0.61-5.85-1.28-6.49-4.61
	c-1.1-5.7,0.44-10.74,4.82-14.61c3.77-3.33,8.54-1.19,9.46,4.07C313.8,238.59,313.83,239.43,313.89,239.98z"/>
<path class="st7" d="M444.23,240.27c-0.02,3.71-1.12,7.05-3.55,9.9c-0.33,0.39-0.71,0.76-1.11,1.09c-1.8,1.46-3.79,2.29-6.09,1.45
	c-2.39-0.87-3.52-2.84-3.84-5.21c-0.64-4.66,0.6-8.86,3.62-12.47c1.76-2.1,3.92-3.56,6.8-2.6c2.88,0.96,3.77,3.45,4.16,6.17
	C444.29,239.14,444.23,239.71,444.23,240.27z"/>
<path class="st0" d="M346.61,219.86c2.22,0,4.11,0,6.13,0c-0.94,2.94-1.73,5.89-2.44,8.86c-1.56,6.51-3.16,13.01-4.74,19.52
	c-0.11,0.44-0.45,0.98,0.1,1.3c0.47,0.28,0.91-0.11,1.3-0.38c1.32-0.9,2.34-2.13,3.45-3.25c0.14,0.13,0.24,0.19,0.23,0.22
	c-0.87,2.61-2.29,4.81-4.74,6.21c-0.9,0.52-1.91,0.68-2.84,0.05c-0.94-0.65-0.87-1.65-0.69-2.61c1.07-5.64,2.58-11.18,3.85-16.78
	c0.54-2.41,1.12-4.81,1.63-7.23C348.29,223.71,348.67,221.64,346.61,219.86z"/>
<path class="st7" d="M483.93,245.07c-0.51,2.98-1.66,5.61-4.32,7.24c-2.86,1.75-5.82,0.36-6.39-2.93c-0.34-1.98,0.02-3.91,0.55-5.79
	c1.03-3.69,2.84-6.92,5.73-9.5c0.84-0.75,1.78-1.37,2.86-1.71c1.31-0.41,2.63-0.46,3.71,0.58c1.1,1.07,1.14,2.42,0.76,3.79
	c-0.5,1.8-1.77,2.99-3.29,3.95c-1.92,1.22-4.05,1.86-6.24,2.31c-0.6,0.12-0.88,0.34-0.98,0.95c-0.23,1.38-0.5,2.75-0.23,4.16
	c0.37,1.92,1.59,2.53,3.33,1.62c1.31-0.68,2.23-1.8,3.15-2.9C483.03,246.27,483.47,245.67,483.93,245.07z"/>
<path class="st7" d="M338.06,244.9c-0.54,2.88-1.64,5.42-4.08,7.18c-1.43,1.04-3.03,1.3-4.64,0.53c-1.61-0.77-2.2-2.28-2.21-3.97
	c-0.04-5.65,2.11-10.4,6.1-14.33c1.06-1.04,2.31-1.83,3.83-2.1c2.52-0.45,4.34,1.32,3.92,3.85c-0.32,1.94-1.51,3.3-3.07,4.38
	c-1.94,1.33-4.13,2.08-6.41,2.5c-0.88,0.16-1.15,0.57-1.29,1.38c-0.19,1.11-0.27,2.22-0.21,3.34c0.14,2.37,1.66,3.15,3.7,1.9
	c1.39-0.85,2.37-2.13,3.36-3.38C337.39,245.76,337.72,245.33,338.06,244.9z"/>
<path class="st7" d="M596.83,237.54c0.53-1.29,1.17-2.53,2.02-3.65c0.44-0.58,0.95-1.08,1.62-1.39c1.21-0.57,2.54-0.63,3.55,0.12
	c0.79,0.59,0.35,1.79,0.21,2.69c-0.17,1.02-0.6,1.98-1.48,2.74c-0.2-0.51-0.37-0.97-0.58-1.43c-0.79-1.73-1.78-1.88-3.05-0.43
	c-0.66,0.76-1.14,1.63-1.56,2.54c-1.75,3.8-2.54,7.88-3.32,11.95c-0.4,2.07-0.37,2.05-2.52,1.69c-0.8-0.13-1.01-0.36-0.79-1.2
	c1.26-4.86,2.26-9.79,3.11-14.74c0.09-0.5,0.31-1.1-0.33-1.37c-0.51-0.22-0.88,0.23-1.24,0.54c-0.89,0.78-1.53,1.79-2.35,2.66
	c0.44-2.04,1.08-3.97,2.79-5.3c0.84-0.66,1.81-1.17,2.87-0.62c1.02,0.53,1.16,1.56,1.07,2.6c-0.06,0.8-0.18,1.59-0.28,2.38
	c-0.06,0.12-0.11,0.28,0,0.36C596.68,237.75,596.75,237.59,596.83,237.54z"/>
<path class="st7" d="M498.83,238.62c-0.58-1.13-0.96-2.27-1.66-3.25c-0.92-1.27-2.05-1.67-3.18-1.13c-1.07,0.51-1.49,1.74-1.07,3.21
	c0.51,1.78,1.56,3.31,2.44,4.91c0.61,1.12,1.27,2.22,1.64,3.45c1.35,4.48-1.55,7.81-6.15,7.1c-3.11-0.48-3.91-1.58-3.36-4.67
	c0.13-0.74,0.32-1.48,0.79-2.24c0.48,1.08,0.88,2.12,1.38,3.11c0.43,0.86,1,1.63,2,1.95c1.61,0.51,2.9-0.36,3.02-2.04
	c0.07-0.99-0.21-1.9-0.66-2.76c-0.83-1.59-1.71-3.15-2.55-4.74c-0.83-1.58-1.39-3.25-1.07-5.06c0.68-3.87,5.78-5.8,8.94-3.4
	c0.23,0.18,0.41,0.36,0.43,0.67C499.87,235.41,499.82,237.06,498.83,238.62z"/>
<path class="st7" d="M317.16,235.41c0-1.39,0.61-2.09,1.97-1.87c1.07,0.17,1.4-0.4,1.49-1.3c0.03-0.32,0.11-0.63,0.18-0.94
	c0.5-2.36,0.5-2.33,2.94-2.51c0.6-0.04,0.59,0.2,0.48,0.6c-0.28,1.04-0.54,2.08-0.85,3.11c-0.17,0.57-0.07,0.8,0.57,0.73
	c0.99-0.1,1.98-0.15,3.01-0.22c-0.01,0.19,0,0.3-0.03,0.41c-0.65,1.99-0.66,2.08-2.76,1.95c-1.22-0.07-1.69,0.29-1.97,1.5
	c-0.87,3.76-1.91,7.49-2.85,11.23c-0.14,0.55-0.49,1.26,0.15,1.64c0.63,0.37,1.21-0.13,1.72-0.52c1.29-0.99,2.22-2.35,3.6-3.69
	c-0.73,2.33-1.6,4.22-3.11,5.76c-0.54,0.55-1.14,0.99-1.87,1.26c-2.03,0.75-3.6-0.3-3.5-2.45c0.13-2.77,1.17-5.36,1.77-8.04
	c0.43-1.94,0.94-3.87,1.48-5.79c0.2-0.71,0.08-0.94-0.66-0.88C318.34,235.44,317.74,235.41,317.16,235.41z"/>
<path class="st7" d="M390.58,245.43c-0.74,2.37-1.6,4.26-3.1,5.83c-0.45,0.47-0.95,0.86-1.53,1.14c-2.2,1.08-4.03-0.06-3.88-2.48
	c0.15-2.45,1.02-4.75,1.58-7.11c0.57-2.44,1.22-4.86,1.86-7.38c-0.93,0-1.76,0-2.61,0c0.26-1.81,0.26-1.87,2.04-1.88
	c0.89,0,1.33-0.27,1.37-1.17c0.01-0.32,0.1-0.63,0.17-0.94c0.47-2.28,0.48-2.25,2.73-2.6c0.74-0.11,0.95-0.04,0.71,0.74
	c-0.36,1.17-0.63,2.37-0.97,3.66c1.31-0.08,2.5-0.15,3.72-0.22c0.06,0.64-0.34,1.09-0.45,1.61c-0.13,0.62-0.48,0.81-1.1,0.79
	c-0.91-0.03-2.13-0.3-2.66,0.16c-0.6,0.52-0.61,1.75-0.85,2.67c-0.84,3.24-1.68,6.48-2.5,9.73c-0.15,0.59-0.53,1.36,0.13,1.75
	c0.66,0.4,1.28-0.18,1.81-0.6C388.3,248.14,389.25,246.83,390.58,245.43z"/>
<path class="st8" d="M596.83,237.54c-0.1,0.21-0.2,0.43-0.33,0.7c-0.18-0.41-0.13-0.68,0.1-0.92
	C596.68,237.4,596.75,237.47,596.83,237.54z"/>
<path class="st2" d="M149.12,163.33c0-8.63,0.02-17.26-0.02-25.89c0-0.9,0.21-1.13,1.11-1.12c3.36,0.06,6.71,0.03,10.07,0.02
	c1.98,0,3.9,0.29,5.74,1.04c4.58,1.87,7.03,6.43,6.26,11.59c-0.87,5.84-4.76,9.39-10.67,9.7c-1.24,0.06-2.48,0.09-3.71,0.03
	c-0.78-0.04-0.9,0.25-0.92,0.95c-0.03,0.84,0.43,0.76,0.97,0.75c2.91-0.01,5.84-0.13,8.68,0.73c7.13,2.16,11.34,9.03,10.19,16.62
	c-1.19,7.87-6.37,12.32-14.71,12.52c-4.03,0.1-8.07-0.01-12.11,0.05c-0.97,0.01-0.88-0.49-0.88-1.11
	C149.12,180.59,149.12,171.96,149.12,163.33z"/>
<path class="st2" d="M616.77,164.29c0-6.67,0.02-13.35-0.02-20.02c-0.01-0.97,0.28-1.19,1.2-1.16c2.56,0.06,5.12,0,7.67,0.03
	c4.48,0.05,7.17,2.46,7.67,6.91c0.18,1.63,0.08,3.27-0.38,4.87c-0.91,3.19-3.2,5.03-6.53,5.17c-1.4,0.06-2.8,0.05-4.2,0.01
	c-0.67-0.02-0.89,0.16-0.88,0.86c0.01,0.65,0.14,0.89,0.85,0.88c2.11-0.03,4.24-0.16,6.34,0.25c5.47,1.07,8.75,4.95,8.97,10.55
	c0.08,2.09-0.09,4.15-0.89,6.11c-1.82,4.51-5.44,6.41-10.04,6.67c-3.03,0.17-6.07,0.04-9.11,0.08c-0.92,0.01-0.65-0.62-0.65-1.06
	c-0.01-6.07-0.01-12.15-0.01-18.22C616.77,165.57,616.77,164.93,616.77,164.29z"/>
<path class="st2" d="M231.54,163.87c-0.05,5.34-0.77,10.09-3.08,14.46c-2.16,4.07-5.23,7.21-9.83,8.34
	c-5.97,1.47-10.74-0.74-14.48-5.38c-2.62-3.25-3.94-7.09-4.53-11.17c-0.86-5.93-0.61-11.78,1.53-17.46c0.72-1.91,1.7-3.69,2.95-5.31
	c6.06-7.83,16.5-7.81,22.52,0.05c3.04,3.97,4.3,8.58,4.76,13.46C231.48,162.01,231.5,163.17,231.54,163.87z"/>
<path class="st2" d="M690.01,163.61c-0.05,5.61-0.79,10.39-3.13,14.79c-2.15,4.04-5.22,7.06-9.75,8.28
	c-5.54,1.49-11.27-0.82-14.94-5.93c-2.45-3.42-3.71-7.3-4.23-11.43c-0.77-6.04-0.35-11.96,2.05-17.62c1.06-2.49,2.54-4.7,4.57-6.52
	c6.09-5.46,14.61-4.8,19.96,1.54c3.2,3.8,4.62,8.32,5.2,13.15C689.91,161.34,690.05,162.81,690.01,163.61z"/>
<path class="st2" d="M364.75,163.95c-0.09,5.24-0.77,9.94-3.05,14.29c-2.14,4.09-5.19,7.24-9.77,8.41
	c-5.9,1.5-10.68-0.62-14.44-5.19c-2.73-3.32-4.09-7.27-4.69-11.48c-0.85-5.89-0.57-11.71,1.56-17.34c0.72-1.91,1.71-3.69,2.96-5.31
	c6.06-7.82,16.52-7.79,22.52,0.08c3,3.94,4.27,8.5,4.73,13.35C364.68,161.95,364.71,163.15,364.75,163.95z"/>
<path class="st2" d="M533.34,171.25c-0.22,0.05-0.33,0.1-0.44,0.1c-5.27,0-10.54,0-16,0c2.63-7.14,5.24-14.19,7.94-21.52
	C527.75,157.13,530.54,164.17,533.34,171.25z"/>
<path class="st2" d="M413.56,235.97c-2.49-0.01-2.52-0.01-2.19-2.26c0.36-2.44,0.8-4.87,1.16-7.32c0.43-2.9,1.51-4.19,5.41-2.97
	c2.59,0.81,3.98,3.77,3.43,6.87c-0.58,3.21-2.94,5.29-6.39,5.6C414.46,235.94,413.94,235.95,413.56,235.97z"/>
<path class="st2" d="M573.25,247.45c0.32-3.98,1.81-7.47,4.32-10.55c0.48-0.59,1.04-1.1,1.71-1.48c0.91-0.51,1.86-0.83,2.78-0.07
	c0.91,0.76,1.36,1.62,0.95,2.93c-1.1,3.49-2.49,6.8-4.91,9.6c-0.57,0.67-1.21,1.27-1.96,1.74c-1.67,1.05-2.77,0.49-2.89-1.46
	C573.24,247.93,573.25,247.69,573.25,247.45z"/>
<path class="st2" d="M365.09,247.84c0.34-4.28,1.82-7.95,4.53-11.11c0.44-0.52,0.95-0.97,1.55-1.31c0.92-0.52,1.87-0.82,2.78-0.07
	c0.91,0.75,1.37,1.63,0.95,2.93c-1.03,3.2-2.29,6.28-4.37,8.97c-0.64,0.82-1.35,1.58-2.2,2.19c-0.69,0.49-1.43,1.02-2.31,0.58
	C365.08,249.54,365.18,248.56,365.09,247.84z"/>
<path class="st2" d="M310.74,239.56c-0.11,2.63-0.57,5.16-1.61,7.58c-0.48,1.11-1.07,2.15-1.97,2.97c-1.94,1.75-4.06,1.11-4.74-1.39
	c-0.29-1.06-0.28-2.14-0.25-3.21c0.08-2.83,0.68-5.54,1.96-8.07c0.32-0.64,0.71-1.26,1.16-1.81c0.82-1,1.84-1.73,3.22-1.41
	c1.33,0.31,1.72,1.46,1.95,2.61C310.63,237.72,310.65,238.65,310.74,239.56z"/>
<path class="st2" d="M441.1,239.43c-0.08,3.1-0.58,6.11-2.12,8.86c-0.49,0.88-1.07,1.69-1.94,2.24c-1.69,1.08-3.37,0.53-4.04-1.36
	c-0.6-1.7-0.49-3.46-0.3-5.22c0.28-2.6,0.95-5.09,2.3-7.36c1.11-1.86,2.54-2.71,3.91-2.41c1.22,0.27,2.03,1.71,2.17,3.91
	C441.13,238.55,441.1,238.99,441.1,239.43z"/>
<path class="st9" d="M476.94,241.67c0.63-1.93,1.45-3.55,2.57-5.02c0.49-0.64,1.03-1.23,1.72-1.64c0.76-0.46,1.62-0.97,2.42-0.26
	c0.76,0.67,0.51,1.61,0.21,2.46c-0.39,1.1-1.22,1.86-2.16,2.49C480.3,240.62,478.74,241.17,476.94,241.67z"/>
<path class="st9" d="M330.87,241.75c0.92-2.53,1.94-4.68,3.78-6.31c1.16-1.03,2.36-1.29,3-0.71c0.68,0.61,0.61,1.99-0.18,3.21
	c-0.86,1.34-2.18,2.08-3.57,2.7C333.01,241.05,332.05,241.32,330.87,241.75z"/>
</svg>
